<svg xmlns="http://www.w3.org/2000/svg" viewBox="0 0 1741.95 1161.61"><defs><style>.cls-1{fill:gray;}.cls-2{fill:#fff;}.cls-3{fill:#4d4d4d;}.cls-4{fill:none;stroke:#000;stroke-miterlimit:10;}</style></defs><g id="Sarntaler_Alpen" data-name="Sarntaler Alpen"><path class="cls-1" d="M1054,429c3.37-29.37-54.45-70.61-112-73-49.74-2.06-119.78,24.05-129,79-7.84,46.78,30.74,100.38,67,103,19.12,1.38,26.28-12.24,68-41C1018.49,448.41,1051.54,450.43,1054,429Z" transform="translate(-18.97 143.32)"/><circle class="cls-2" cx="909.03" cy="570.32" r="6"/></g><g id="Rosengartengruppe"><path class="cls-1" d="M893.89,735c-2.78,2.1,4.76,10.64,7.19,29.69.77,6.06.54,9.38,3.32,13.14,4,5.43,8.7,4.2,14,9.23,5.63,5.3,3.4,9.46,8.13,17.83,3.62,6.41,12.62,17.59,21.75,16.87,9.75-.77,11-14.45,23.32-16.48,8.23-1.36,13.83,3.75,15.53,1.56,2.22-2.86-5.76-13.77-14-21.21-15.81-14.21-27.38-5.67-42.05-18.52-7.49-6.56-6.61-10.25-18.41-20.78C909.22,743.28,897.17,732.53,893.89,735Z" transform="translate(-18.97 143.32)"/><circle class="cls-2" cx="924.03" cy="934.32" r="6"/></g><g id="Pragser_Dolomiten" data-name="Pragser Dolomiten"><path class="cls-1" d="M1361.46,409.25c31.67-2.77,41,15.41,87.45,33.53,55.71,21.74,83.66,11.73,94.41,34.05,6,12.55-1.51,18.37,4.64,54.43,4.09,23.93,8.26,26.32,5.93,35.34-7.23,28-58.69,47.95-78.93,33-11.75-8.68-4.3-22.7-18.57-37.15-12.73-12.89-23.27-6.4-46.69-17-20.29-9.2-14.56-15.05-54.17-47.21-19-15.41-28.53-20.75-34.83-35.6-2.23-5.26-7.91-18.67-2.57-30.95C1326.55,412.29,1356.38,409.69,1361.46,409.25Z" transform="translate(-18.97 143.32)"/><circle class="cls-2" cx="1431.03" cy="635.32" r="6"/></g><g id="Sextner_Dolomiten" data-name="Sextner Dolomiten"><path class="cls-1" d="M1549.19,465.36c-7.58,11.21,3.73,20.08,4.34,53.36.41,22.35-4.51,28.16,1.24,40.63,6.34,13.73,15.19,12.94,18.3,24.82,4.07,15.51-9.46,22.86-5.89,38.46,2.54,11.08,13.09,23.68,23.89,23.88,19,.36,23.62-38,49.63-41.87,6.43-1,14.21,2.15,29.77,8.37,18.19,7.28,38,15.18,39.4,27.92,1.17,10.28-10.11,19-6.82,22.65,1.6,1.79,5.73,1.31,8.37-.31,5.52-3.39,2.28-10.32,6.82-15.82,6.83-8.27,20.48-.28,27.61-9,3.35-4.09,2.12-8,7.45-13,4.1-3.85,6.67-3.24,7.44-5.27,2.37-6.23-19.92-16.62-35.67-33.5-14.94-16-10-22.83-23.27-44-12-19.08-17.24-15.57-69.17-58.94-23.29-19.45-31.29-27.72-47.15-29.46C1583.25,454,1558.54,451.54,1549.19,465.36Z" transform="translate(-18.97 143.32)"/><circle class="cls-2" cx="1614.03" cy="686.32" r="6"/></g><g id="Fanesgruppe"><path class="cls-1" d="M1308,469c-6.83,4,3.14,33.37,5.06,40.05,4.29,14.93,7.74,19.69,6.72,30-1.52,15.28-10.31,16.74-12.41,31-2.84,19.27,12.09,23.8,9.31,40.34-3.25,19.27-25.2,23-24.31,40.33.4,7.87,5,7.47,7.24,17.59,4.77,21.08-12,36.23-6.21,42.92,3.7,4.29,11-1.53,22.76-.52,26.36,2.26,35.14,35.1,49.13,32.58,8.6-1.55,8.4-14.55,21.2-40.85,11.92-24.5,26-41.92,35.68-53.79,22.85-28.15,31.69-28.8,37.24-46.54,6.13-19.6,8.24-29.5-2.42-34-5.34-2.26-15.46-13.62-19.82-12C1398.17,570.45,1321.26,461.22,1308,469Z" transform="translate(-18.97 143.32)"/><circle class="cls-2" cx="1353.03" cy="768.32" r="6"/></g><g id="Latemargruppe"><path class="cls-1" d="M995,820.4c-.45,2.49,4.79,3.43,5.5,8.13,1,6.58-8.57,9.65-8.63,16.75,0,4.67,4.06,4.85,12.06,15.07s8.24,15.49,15,18.27c4.66,1.9,5.63-.17,9.08,1.74,9.15,5.09,5.57,21.5,12,23.5,3.08,1,4.14-2.79,9.9-3.92,9.14-1.77,19.34,5.17,24.81,12.12,4.76,6.06,4.94,10.85,7.33,10.83,3.56,0,3.75-10.69,10.62-21.36,6.21-9.64,11.36-9.2,20.36-18,10.57-10.3,23.24-30.18,16.88-40.23-3.23-5.11-9.2-2.28-30.63-5.62a234.61,234.61,0,0,1-43.87-11.64c-14.69-5.3-14.49-6.87-23.51-8.82C1013.9,813.37,995.85,815.93,995,820.4Z" transform="translate(-18.97 143.32)"/><circle class="cls-2" cx="1048.03" cy="1005.32" r="6"/></g><g id="Langkofelgruppe"><path class="cls-1" d="M1173.81,641.55c2.8-1.35,3.52,0,17.82,2.22,17.66,2.82,19.89,1.36,22.83,4.46,5.9,6.2,1.08,16.35,7.8,20.6,3.09,2,5.81.88,7.24,3.34,1.88,3.26-.41,9.36-3.9,10.58-1.3.46-1.94,0-3.34,0-5.56.2-11.73,8.72-10,12.26,2.07,4.3,14.09-2.29,20,3.34,7,6.55,3.82,27.95-8.35,34-8.18,4.05-17.73-.2-22.28-2.22-11.35-5.05-10.71-10.87-18.93-15-18.24-9.25-38.66,10.6-47.89,1.67-3.93-3.8-4.38-11.42-2.23-16.15,3-6.55,10.1-5.57,12.81-12.25,2.59-6.39-2.52-10.73.56-15.59,2.65-4.2,7.16-2.06,12.8-5.57C1169.4,660.55,1164.84,645.87,1173.81,641.55Z" transform="translate(-18.97 143.32)"/><circle class="cls-2" cx="1166.03" cy="827.32" r="6"/></g><g id="Stubaier_Alpen" data-name="Stubaier Alpen"><path class="cls-1" d="M745-142.87C651.17-140,551.12-97,552.1-60.81c.47,17.36,23.79,20,49,52.12,32.68,41.61,33.57,88.19,36.56,115.51,2.9,26.5-3.38,77.46,8.34,110.18,17.29,48.28,53.68,84.93,92,110,15.73,10.29,29.28,20.94,45.9,26,62.28,19,122.81-30.34,165.1-87,23.29-31.21,48.19-59.48,48-92-.14-24.25,15.12-25.05-9.7-92.07C947.93-24.41,964-47,935.58-83.37,885.66-147.22,784.28-144.09,745-142.87Z" transform="translate(-18.97 143.32)"/><circle class="cls-2" cx="797.03" cy="242.32" r="6"/></g><g id="Sellagruppe"><path class="cls-1" d="M1224,657c-2.35,1.3-1.6,7,1,10,1.69,2,6.34,2.63,7,4,.86,1.79,1.34,9.91-3,13-5.89,4.2-15,6.86-14,9,1.24,2.72,17.76.14,21,4,3.9,4.64.66,19,4,24,2.25,3.39,1.94-5.74,31.49-11.1,11.43-2.08,14.78,6.15,16.51,2.1,2.25-5.27,7.39-22,9-30,1.54-7.69,1-6.1,1-12,0-5.54-7.62-10.09-12.57-12-4.71-1.81-6.17.31-15.68.35-11.56,0-15.51-3.06-19.15,0s-1.79,8-4.88,9.4C1240.89,670,1227.71,654.94,1224,657Z" transform="translate(-18.97 143.32)"/><circle class="cls-2" cx="1249.03" cy="831.32" r="6"/></g><g id="Rieserfernergruppe"><path class="cls-1" d="M1490.5,162.38c4.72-1.66,16.25-5.53,30.09-2.74,3.31.67,12.2,2.82,27.35,14.36,11.88,9.05,17.57,16.23,30.09,30.43,29.77,33.78,34.39,34.91,33.85,42-1.32,17.49-30.39,30.42-47.53,34.88-21,5.45-25.71-1.36-42,5.47-21,8.76-31.87,27.77-36.93,36.58-11.54,20.12-5.83,25.44-16.41,49.58-10.69,24.39-30.84,51.59-44.79,48.55-7.52-1.63-6.35-10.55-16.75-15-12.31-5.31-19.39,4.82-36.59,2.73-14.63-1.78-30.1-11.62-31.45-22.56-.86-6.89,4.3-10.84,8.89-18.12,21.53-34.18-4.72-85.54,12-99.16a51.69,51.69,0,0,0,11.29-11.62c3.53-5.07,3.09-7.62,5.47-10.26,5.93-6.57,18-3.31,24.27-3.08C1432,245.58,1442.79,179.07,1490.5,162.38Z" transform="translate(-18.97 143.32)"/><circle class="cls-2" cx="1426.03" cy="445.32" r="6"/></g><g id="Ortlergruppe"><path class="cls-1" d="M19.58,527.28c-4.13,7.07,12.71,18,44.49,54.81C89.55,611.59,69.65,657.24,89,692c11,19.75,51.37,41.88,65,54,17.43,15.49,33.65,3.66,57,17,15.43,8.81,50.37,6.18,55.49,36.31,5.18,30.38-26.25,41.85-17.56,71,6,20.16,24.75,27.13,22,45.86-1.83,12.25-11.31,19.17-7.24,25.6,3,4.65,10.57,5.18,21.84,6a114.75,114.75,0,0,0,30-1.86,168.45,168.45,0,0,0,35.87-11.25c32.61-15,67.27-25.81,100.7-39.17,48.35-19.31,99.15-35.74,129.31-45.51,47.43-15.35,61.56-18.39,72.92-33.53,19.26-25.64,1-46.51,7-84,13-80.61,90.1-121,83.69-171.48-3.27-25.74,29.25-21.89-1.59-25.09C711.85,532.62,679,530.39,657,546c-24.07,17.07-48.46,20.14-74,23-42.56,4.77-85.42,12.94-124,1-71.49-22.12-101.92-21.46-148-14-45,7.29-67.5,53.3-112,57-34.6,2.87-29.7-52.83-102.55-76.26C89.17,534.39,26.94,514.68,19.58,527.28Z" transform="translate(-18.97 143.32)"/><circle class="cls-2" cx="414.03" cy="868.32" r="6"/></g><g id="Ötztaler_Alpen" data-name="Ötztaler Alpen"><path class="cls-1" d="M322.91,6.59c-1.08-30.88,75.33-58.15,125-67.33,30.81-5.68,80.25-14.81,103.87,11.54,11.47,12.81,9.92,26.24,12.5,52.9,0,0,17.73,42.29,39.43,100C613.37,129.34,607.5,93.1,625,120c10.76,16.54,5.85,56,10,83,1.09,7.13-2.6,19.62,2,23,21.67,15.95,38.68,56,50,71,18.66,24.68,38.66,21.53,56.2,37.54C759.77,349.68,821.59,380.3,825,363c.38-1.92-39,156.74-74,155-14.45-.72-21.51-6.77-36-2-7.77,2.56-17.39-2.92-26,5-14.39,13.24-28.8,15.57-49,19-30.25,5.14-59.89,15-70,21-28.25,16.85-81.93,5.93-138-6-58.7-12.49-119.66-27.34-140.82-69.47-23.14-46,20.29-67.4-1.93-151-12.22-46-34.79-74.94-20.19-108.68,4.33-10,8-11.36,34.62-36.54,62.89-59.52,78.61-86.3,84.63-111.57,1.56-6.54,6.15-26.71-2.88-33.66-6.19-4.76-13.69.59-25-1C342.18,40.64,323.44,21.51,322.91,6.59Z" transform="translate(-18.97 143.32)"/><circle class="cls-2" cx="482.03" cy="479.32" r="6"/></g><g id="Texelgruppe"><path class="cls-3" d="M568,467c-.17-11.32,28.71-15.17,79-37,36.42-15.81,43-23.23,76-34,22.91-7.48,49.53-16.17,53-10,5.47,9.71-49.35,50.95-99,77-48.12,25.25-72.51,26.32-91,19C582.36,480.56,568.12,474.92,568,467Z" transform="translate(-18.97 143.32)"/><circle class="cls-2" cx="660.43" cy="580.93" r="6"/></g><g id="Puezgruppe"><path class="cls-1" d="M1302,523c-10.76-3.07-52.53,45.82-54.48,51.27a5.14,5.14,0,0,1-1.16,1.93c-2.55,2.67-7.48,1.71-8.52,1.55-5.14-.75-12.08,5.55-21.84,13.25-9.4,7.42-21.52,16-31,26-6.13,6.43-10.59,12.58-9,15,1.25,1.9,2.43-2.63,8.39-1.18,8,2,10.1,6,19.61,11.18,1.56.85,8.48,5.66,16,2,3.4-1.65,22.86,17.23,25,15,9.67-10.09,26.12-2.3,41-8,12.7-4.87,30.71-35,14-46-2.49-1.64.44-17-2-24-3.46-9.88,1.89-19.3,3-29,1.52-13.22,7.73-5,8-18C1309.1,529,1306.46,524.27,1302,523Z" transform="translate(-18.97 143.32)"/><circle class="cls-2" cx="1241.03" cy="757.32" r="6"/></g><g id="Zillertaler_Alpen" data-name="Zillertaler Alpen"><path class="cls-1" d="M999.86,103.57c11.18-13.42,28-1.41,51.33-13.19,23.55-11.92,29-35.65,41.06-33,7.58,1.66,6.56,11.26,13.2,13.2,18.55,5.4,38.13-66.12,81.4-71.87,11.56-1.53,10.22,3.57,33,4.4,17.31.64,54.67,2,66-16.86,8.86-14.76-6.59-27.92,3.66-52.8,3.07-7.44,7.13-17.28,16.13-21.27,21-9.3,40,26.12,74.07,25.67,21.52-.29,22.78-14.51,55-27.87,47.68-19.77,100-11.47,102.67,0,1.77,7.66-19.53,12.57-22,30.8-1.68,12.39,7.32,16.32,13.2,33.73,9.82,29.1-7.06,42.52,2.2,63.8,10.13,23.28,36.26,20.84,38.13,32.27,5.93,36.18-249.46,101.18-243.46,147.39,2.06,15.81,33.89,23.08,34.47,49.13.26,11.9-6.18,19.24-11.73,28.6-27.13,45.72.48,83.37-16.87,104.13-32.74,39.17-179.14-37.24-190.66-15.4-4,7.67,13.59,17.89,16.87,45.46,3.09,26-8.06,54.94-19.07,55.73-12.67.92-21.69-35.72-34.46-63.79C1061.78,329,940.7,348.78,939,301c0-1,0-1.69.07-3.16,2.07-49.25,46.85-57.28,68.86-110.67,4.92-11.95,6.25-38.48,5.07-58.17C1012.14,114.67,993.4,111.32,999.86,103.57Z" transform="translate(-18.97 143.32)"/><circle class="cls-2" cx="1216.03" cy="302.32" r="6"/></g><g id="Pfunderer_Berge" data-name="Pfunderer Berge"><path class="cls-3" d="M942,298c3.94-13.84,74.9,7.69,164,5,136.39-4.12,236.32-62.63,247-42,4.66,9-15.94,17.18-21,49-5.45,34.33,13.75,54.93,0,77-6.75,10.83-17.33,15.41-21,17-21.57,9.33-41.25-.91-81-14-40.79-13.43-80.74-26.58-89-15-5,7.06,6,17.28,10,39,5.63,30.48-3,65.58-13,67-17.21,2.43-17.58-96.82-79-125-22.45-10.3-39.94-5.08-77-25C973.9,326.65,939.16,308,942,298Z" transform="translate(-18.97 143.32)"/><circle class="cls-2" cx="1114.03" cy="490.32" r="6"/></g><g id="Geislergruppe"><path class="cls-1" d="M1091.81,549.12c6.38.84,7.42,5.44,17.3,10.31,2.79,1.38,11.36,5.61,21.63,5.33,14.4-.39,17.54-9.25,27-6.66,8.23,2.27,9.37,10,17.3,10,5,0,6.07-3.14,12-3.33,5.66-.19,10,2.51,14.31,5.32,2.76,1.79,18.59,11.47,16.64,18-.79,2.6-3.91,3-8.66,5-16.56,7-26.67,22.29-31.28,29.29-6.63,10.06-5.51,13.22-9.65,14.64-8.43,2.88-14-9.94-32.27-13-9.23-1.53-11.89,1-17.64-2.33-7.62-4.48-6.71-11.22-14-15.64-4.89-3-8.7-2-20.29-1.66-20.3.57-30.45.86-33.61-3.33-6.34-8.39,8-30,20.63-41.6C1076.81,554.27,1083.76,548.06,1091.81,549.12Z" transform="translate(-18.97 143.32)"/><circle class="cls-2" cx="1112.03" cy="736.32" r="6"/></g><g id="Outline"><path class="cls-4" d="M644.48,416.25l-26.89.35-9.87-5.11-31.32-1.7-12.94,6.12-26.89,3.75L508,403.32l-12.25,5.45-5.79-1.71-10.21-22.81-26.56,10.9-20.08-1.7L427,389.36l-1.7-7.49,8.17-4.08L446,366.55,450.1,356l-.68-8.17-17.7-8.17-8.86-1.7-18-14-5.44-14.3L383,300.85l-53.44,14.3-16.68,20.08L300,337.62l-3.4-11.92L287,324.34l-11.57,1-14-.34-12.93-2.38-6.81-6.81h-6.13l-4.77,21.45-5.1,4.42-3.75,30-19.74,10.55v10.56l7.49,9.19,2.38,8.17.34,18-27.91,20.08,9.87,23.49-15.32,15.32-6.47,8.51L168.23,498l4.08,20.42,2.72,14.3,7.15,23.83,20.77-1L214.86,550l8.52,7.49,8.85,5.45,15,14v5.78l-5.45,18.39,1.36,13.95s-3.74,4.43-4.09,5.79L235,637.19s-.68,11.92-.68,14.3-6.47,6.81-7.83,7.83-8.17,7.49-8.17,7.49v18l8.85,20.77,12.94,7.15,6.12-3.41,12.6-.68,14,3.75L286,717.87l12.6,6.13,13.28,11.91,12.59,4.77L336.4,754l5.1,9.53,12.6,3.74,13.62-3.4L379,761.45l11.57.68,4.77-5.79,7.15-3.4,10.55.68,1-5.45,4.43-7.83,7.49-6.81,3.74-3.4,10.9-5.11,12.93,4.77s3.75,6.81,4.43,8.17,6.13,13.95,6.13,13.95l6.12,15.66,8.85,4.77,19.41,3.74,20.42,1.37h7.49l5.45-9.88s7.83-3.06,9.87-3.06S555,770,555,770l10.21-1L577.42,757l6.13-12.94,11.91-3.4,9.87-8.85,8.17-3.75,11.58,3.41s8.17,7.83,9.19,8.51,11.91,10.89,11.91,10.89l8.85,8.85,10.9,10.9,12.93,4.08,7.49-.68,1.37-15.32-3.41-8.51L680.91,739l-4.09-12.6-4.08-12.59L669.33,708l-8.17-5.45-7.49-5.78,5.11-6.13H669l12.26-5.11,5.78-6.81s4.43,1,5.11,2.73-.68,17.36-.68,17.36-1.7,6.81-.68,8.17,8.51,10.89,8.51,10.89L710.52,726l11.92,4.43L733,729.11l12.26-4.43,4.42-5.79,6.81-7.15,9.19-1.7,7.49-7.15s5.45,9.19,6.13,10.56,7.49,9.87,7.49,9.87,2,9.87,2.72,12.93,2.73,14,2.73,15-4.43,9.88-4.43,9.88-2,14.63-2,16-2,22.46-2,22.46l5.78,15.32-3.74,10.9L783,843.15l-.68,9.87-7.83,5.45-.34,12.93,4.09,6.47-3.75,10.9-5.44,9.87-1,6.47-6.13,14.63-8.51,3.41-.34,9.53-8.51,3.06-10.22,4.09-5.1,7.49,9.53,9.19,8.17,4.43,5.45,6.12,12.25,6.47,7.83,6.47-12.59,7.49-6.13,2s2.38,10.9,3.4,12.26,14.64,14,14.64,14l19.06,2,15-4.43,8.17-7.83L825.93,994l10.55-11.58,9.87-4.76,13.28-1,7.49-8.86.34-9.19-.68-4.42,3.74-10.56,4.77-6.8,5.11-4.09,3.74,11.92,7.49,5.44,5.79,10.21,2,8.18h9.19l16.34-.35,5.45-2.72-.68-6.13L924.31,947l-5.79-7.15-2-5.45v-7.49l9.87-9.19,8.86-7.15,9.53-12.93L956,895.23l8.85-2.72,10.56-3.4,4.76-6.81,4.77-8.51,6.81-5.11.34-8.17s9.87.68,11.23,1.36,12.26,4.09,12.26,4.09l18,7.15,9.19,8.85,6.13-2.05,1.36-7.14,1.7-13.28,1-14.3,8.17-4.76,16.34-1.37,6.13-10.55L1088.4,805l5.78-7.49s2.39-6.47,3.41-6.81-.68-15-.68-15l1.7-11.91,4.42-13.62L1104.4,739l5.44-1,9.19-4.43.69-7.15-4.77-5.1-4.09-2.73.35-10.21,12.59,4.43,9.87,2.72,19.75-7.15,14-7.49,5.44-3.4,9.87,5.78,14,3.07,17.7-5.45,10.9-6.13,7.49-11.23s3.06-5.79,6.81-5.11a25.2,25.2,0,0,1,7.83,3.41l4.76,9.87,1,4.42,10.9-3.74,21.1-2,10.56-3.07,11.57-7.49,8.17-3.74,12.26-.34,12.93,3.4,8.17-15.32,10.21-4.42,12.26,1.7,9.87,6.13,3.07.68,11.91-14.64,6.81-9.53,9.53-17.7,4.77-10.56,5.1-15.66,3.07-14.63,7.83-21.79,2-23.83-.68-17s1.36-3.75,2.38-3.75h8.17s3.41.34,3.75,2.39S1455,532,1455,532l8.86,7.15L1474.1,547l12.59,8.17,12.94,7.83,7.49-3.07,9.19,5.11,7.15,7.15,9.19,4.08-3.4,17,.34,8.51,20.08-11.24,10.22-8.51,8.85-6.13s1.7-6.12,4.08-6.12,14.3,5.44,14.3,5.44l16.34,4.43,12.6-1.7,9.53-14,18.38,3.74,7.49,8.86,11.57-1.37,8.52-5.1,4.08-4.43-4.08-9.53-2.39-5.45,10.9-1,8.51-.34,18-24.17,12.25-7.49,23.49-6.47,9.54-2.72s-11.58-8.51-14-8.51-25.87-3.75-25.87-3.75a72.78,72.78,0,0,0-7.15-4.42c-1.7-.68-11.58-7.15-12.6-7.49s-12.25-8.51-12.25-8.51l-7.49-6.13-17-48.34L1652.48,405l-28.93-9.53-19.07,1.36-7.49-2,2.39-16.34L1598,362.81l4.43-5.79,8.51-7.15,6.13-10.89s-5.11-6.47-6.81-6.47-8.85-2.72-8.85-2.72l.68-10.22,1-10.55L1598,304.6l-6.12-6.47V287.91a63.08,63.08,0,0,0-8.17-1c-2.73,0-9.54-1-9.54-1l-5.1-1-3.41-.68-10.21,9.19s-10.21,2.38-10.21,3.41-7.49,1-7.49,1l-9.53-31-3.75-5.11-25.87.34-6.47-1.7s-2.72-4.77-1-5.79,9.19-5.44,10.21-5.78,6.13-6.81,6.13-6.81l.68-7.15s.34-7.15,0-8.17-2.72-5.11-2.72-5.11-1.36-7.49-3.41-7.83-9.53-1.7-9.53-1.7l-5.45-6.13-1.36-8.85-2.38-12.25-4.43-17.71-2.72-8.17,2.38-10.55,3.75-8.17,14.64-1.36,21.1-1.36,17.71-6.47,2.72-9.19,4.42-15.32,3.07-10.22,11.57-1.7,2.73-7.15,1-8.85s.34-4.42-3.07-4.76-10.55-4.09-12.93-4.09-7.49-1.7-7.49-1.7l-9.19-6.13h-9.19s-6.81,5.45-8.17,6.13-14.64,4.77-14.64,4.77l-6.13,1a61.1,61.1,0,0,0-9.87,2.38l-14.3,2.72-19.41,3.41-4.76,12.59s-4.09,2-5.45,2H1420l-7.83,3.4-6.81,6.81-9.53,3.4s-18-.34-21.45,0-14.63,2-14.63,2l-15.66,7.48-7.15,5.11-11.58-.34L1314.44,130s-9.87,5.78-12.94,7.83-13.61,8.51-17,9.87S1264.74,163,1264.74,163l-8.51,8.85s-6.47,2.72-8.51,2.72-14.3,0-18.73.68-2.72,1-7.83,1.37a42.55,42.55,0,0,0-8.51,1.36l-12.93,18.38L1187.8,198l-16-3.74s-2.38-14-3.4-14.3-6.81-5.45-7.83-5.45-6.47-6.47-7.83-6.47-14.64,2.73-16.34,2.73a53.67,53.67,0,0,0-7.15,1.36l-8.85-5.79-9.19-6.81-9.54-5.78a56.38,56.38,0,0,0-6.46-1.71c-1,0-14.64,3.41-14.64,3.41l-7.83,5.11-9.19,5.1-15,9.19s-12.6,7.49-14.3,9.19-7.15-13.27-7.15-13.27-2.72-3.41-5.79-4.09-9.53-6.47-10.55-6.81-8.85-6.12-8.85-6.12l-12.26,3.4L981.5,166s-2,3.75-3.06,4.43-11.58,3.4-11.58,3.4l-1.7,9.87-6.47,9.54s-10.89,3.4-11.91,3.74-15,.34-16.34.34-14-2-14-2-7.49-5.45-8.85-7.49-6.13-12.26-6.13-12.26l-10.21,1a45,45,0,0,1-5.45.68,70.15,70.15,0,0,1-7.83-1.37l-4.08-.68-17,3.07s-14,3.06-15.32,3.74-16.34,5.45-16.34,5.45-2.73,5.79-4.43,6.47a150.07,150.07,0,0,1-16,3.4c-1.36,0-9.19,2.38-9.19,2.38l-11.23,2.73-5.11-1.36L770.44,198s-4.43,1.36-6.81,3.41-8.17,6.12-8.17,6.12l-2,9.54s-.68,10.55-1.36,11.91-4.77,5.79-4.77,5.79l-6.81,5.1L733,243.66l-12.59-4.43L717.33,243,715,251.49l-2.38,2.38-4.77,3.75s-2.72,2-2.72,3.06,4.08,12.94,4.08,12.94l-4.42,8.51s-7.49,13.95-7.83,15-7.83,12.25-7.83,12.25-3.41,13.28-3.41,15-1,12.94,0,15.32,4.09,10.55,4.43,12.94-2.72,9.19-2.72,9.19L673.08,370l-11.24,6.12s-.68,9.88-1,11.58-7.15,9.53-7.83,10.89-7.15,11.58-7.15,11.58Z" transform="translate(-18.97 143.32)"/></g><g id="Vinschgau"><path class="cls-4" d="M453.5,722.3l5.45-9.19,15-11.24,11.23-15.66,3.75-11.91s9.53-1,10.89-1,6.47-9.88,6.47-9.88h11.57c1.37,0,8.17-6.12,8.17-6.12l4.43-7.15,8.85-7.15,17.7-10.9s10.56,2,12.6,2,11.91-5.11,13.62-5.79,13.95-4.43,15-4.43,10.56-5.1,10.56-5.1,2.72-8.17,2-10.56-3.4-20.42-3.4-20.42-.69-7.15-.69-9.19,1-11.58,1.37-14.3-3.75-8.85-3.75-8.85l-8.17-1.36-8.51-6.47-3.06-7.83,4.08-.34s7.83,3.06,9.19,3.06,9.19-2.72,9.19-2.72L596.48,531l-11.06-12.09,9.7-10.72,8.68-2L615,509.19l6.64-3.57,7.66-8.94-7.66-6.89s-7.91-7.15-8.93-7.66-3.58-4.85-3.58-4.85,0-5.11.26-7.41,5.36-1.27,6.64-1.27,3.06-5.62,3.57-7.15,5.87-8.43,6.64-8.68a72.64,72.64,0,0,1,7.91-1.54c2.3-.25,6.13-4.85,7.15-5.36s8.68-.25,8.68-.25l9.71-3.32.25-5.87-6.38-5.88-6.13-3.32-1.79-6.63-1.95-4.34-26.13.34-9.87-5.11-31.32-1.7-12.94,6.12-26.89,3.75L508,403.32l-12.25,5.45-5.79-1.71-10.21-22.81-26.56,10.9-20.08-1.7L427,389.36l-1.7-7.49,8.17-4.08L446,366.55,450.1,356l-.68-8.17-17.7-8.17-8.86-1.7-18-14-5.44-14.3L383,300.85l-53.44,14.3-16.68,20.08L300,337.62l-3.4-11.92L287,324.34l-11.57,1-14-.34-12.93-2.38-6.81-6.81h-6.13l-4.77,21.45-5.1,4.42-3.75,30-19.74,10.55v10.56l7.49,9.19,2.38,8.17.34,18-27.91,20.08,9.87,23.49-15.32,15.32-6.47,8.51L168.23,498l4.08,20.42,2.72,14.3,7.15,23.83,20.77-1L214.86,550l8.52,7.49,8.85,5.45,15,14v5.78l-5.45,18.39,1.36,13.95s-3.74,4.43-4.09,5.79L235,637.19s-.68,11.92-.68,14.3-6.47,6.81-7.83,7.83-8.17,7.49-8.17,7.49v18l8.85,20.77,12.94,7.15,6.12-3.41,12.6-.68,14,3.75L286,717.87l12.6,6.13,13.28,11.91,12.59,4.77L336.4,754l5.1,9.53,12.6,3.74,13.62-3.4L379,761.45l11.57.68,4.77-5.79,7.15-3.4,10.55.68,1-5.45,4.43-7.83,7.49-6.81,3.74-3.4,10.9-5.11,7.59,2.8.24-.42Z" transform="translate(-18.97 143.32)"/></g><g id="Burggrafenamt"><path class="cls-4" d="M780.74,693.28l4.85-6.13,10.47-5.36,6.38-5.36.77-7.66-3.83-8.17-7.92-19.41.26-4.59,4.59-4.86L793,627.91l-2.3-11.74a22.37,22.37,0,0,0,1.79-4.09c.26-1.27,6.64-3.31,7.41-3.83s7.14-.76,7.14-.76l7.41-3.58,5.62-9.44h7.66s4.34-2.81,5.1-3.83,7.92-4.09,7.92-4.09l7.4-12,3.32-12.25,1.53-7.66-.51-3.83-2.3-6.9-3.06-4.59-3.32-5.87-2.3-11,1-5.11s3.58-7.4,4.6-7.91,2-5.62,2-5.62l-3.32-4.34L839,494.64l1.53-5.36.51-3.07-1.78-3.32,2.55-8.68-1.53-3.83s-3.32-8.93-3.07-10.47a103.28,103.28,0,0,1,3.07-10.46c.51-1,3.06-7.92,4.85-9.71s5.61-2,5.61-2l6.64-3.06,1.53-6.9,3.07-11.49v-3.82l3.57-4.09,5.62-2.55a26.62,26.62,0,0,0,1-7.66c0-4.6.77-3.32.77-3.32h3.57l9.45,1.27s4.34-2,5.62-3.31,7.4-2.56,7.4-2.56l8.17-.25,2-9.45-5.61-6.64s-1-2-2.56-6.13S896.65,355,896.65,355l-5.36-2.55s-9.19-5.11-10.21-5.88-7.41-5.1-7.41-5.1l-9.95,2-13.79-2.3-12-.76-13-1.54L817,337.62l-6.13-6.13-21.7-9.19.51-10.47L791,296.77s-4.6-10.73-5.36-11.49-1-19.66-1-19.66,1-16.09,1-17.88-1.53-6.89-1.53-6.89-7.66-3.57-8.94-3.83a28.25,28.25,0,0,1-4.09-1.53l-2.29-4.34-5.11-5.87L757.76,224l-4.84-.72a29.36,29.36,0,0,1-.86,5.74c-.68,1.36-4.77,5.79-4.77,5.79l-6.81,5.1L733,243.66l-12.59-4.43L717.33,243,715,251.49l-2.38,2.38-4.77,3.75s-2.72,2-2.72,3.06,4.08,12.94,4.08,12.94l-4.42,8.51s-7.49,13.95-7.83,15-7.83,12.25-7.83,12.25-3.41,13.28-3.41,15-1,12.94,0,15.32,4.09,10.55,4.43,12.94-2.72,9.19-2.72,9.19L673.08,370l-11.24,6.12s-.68,9.88-1,11.58-7.15,9.53-7.83,10.89-7.15,11.58-7.15,11.58l-1.36,6.12-26.89.35,26.13-.34,1.95,4.34,1.79,6.63,6.13,3.32,6.38,5.88-.25,5.87L650,445.62s-7.66-.26-8.68.25-4.85,5.11-7.15,5.36a72.64,72.64,0,0,0-7.91,1.54c-.77.25-6.13,7.14-6.64,8.68s-2.3,7.15-3.57,7.15-6.39-1-6.64,1.27-.26,7.41-.26,7.41,2.56,4.34,3.58,4.85,8.93,7.66,8.93,7.66l7.66,6.89-7.66,8.94L615,509.19l-11.23-3.06-8.68,2-9.7,10.72L596.48,531,607,539.83s-7.82,2.72-9.19,2.72-9.19-3.06-9.19-3.06l-4.08.34,3.06,7.83,8.51,6.47,8.17,1.36s4.09,6.13,3.75,8.85-1.37,12.26-1.37,14.3.69,9.19.69,9.19,2.72,18,3.4,20.42-2,10.56-2,10.56-9.53,5.1-10.56,5.1-13.27,3.75-15,4.43-11.58,5.79-13.62,5.79-12.6-2-12.6-2L539.29,643l-8.85,7.15L526,657.28s-6.8,6.12-8.17,6.12H506.27s-5.11,9.88-6.47,9.88-10.89,1-10.89,1l-3.75,11.91-11.23,15.66-15,11.24-5.45,9.19-5.1,5.1-.24.42-7.59-2.8,12.93,4.77s3.75,6.81,4.43,8.17,6.13,13.95,6.13,13.95l6.12,15.66,8.85,4.77,19.41,3.74,20.42,1.37h7.49l5.45-9.88s7.83-3.06,9.87-3.06S555,770,555,770l10.21-1L577.42,757l6.13-12.94,11.91-3.4,9.87-8.85,8.17-3.75,11.58,3.41s8.17,7.83,9.19,8.51,11.91,10.89,11.91,10.89l8.85,8.85,10.9,10.9,12.93,4.08,7.49-.68,1.37-15.32-3.41-8.51L680.91,739l-4.09-12.6-4.08-12.59L669.33,708l-8.17-5.45-7.49-5.78,5.11-6.13H669l12.26-5.11,5.78-6.81s4.43,1,5.11,2.73-.68,17.36-.68,17.36-1.7,6.81-.68,8.17,8.51,10.89,8.51,10.89L710.52,726l11.92,4.43L733,729.11l12.26-4.43,4.42-5.79,6.81-7.15,9.19-1.7,7.49-7.15h0l.43-7.33Z" transform="translate(-18.97 143.32)"/></g><g id="Überetsch-Unterland"><path class="cls-4" d="M983.89,856.6l-4.6-6.13h-9.53l-10.55-2-6-3.24-8.85-1.53-8.68-8.34-5.62-1.53-7.49,2.55-9.87.34-5.28-2.89-4.77-6.13-6-1.53-8.51-4.43L886,818.64l1-5.11s4.77-.17,5.28-.17,4.94-.85,6.81-2-.17-4.09-.17-4.09l1.19-6.12,3.07-1s1.53-6.46,1.53-7.14,3.57-6.47,3.57-6.47l3.92-7-2.39-8.34s1.71-3.92,1.88-4.43,2.72-5.78,2.72-5.78L911,755.15l-6.63-6s-.34-4.42-1.19-5.28-3.92-.51-3.92-.51L894.18,746s-6.46,2-7.15,1.7-3.91,0-3.91,0l-5.28,4.08L872.23,756l.17,5.62-1,8h-2.9s-4.93-2.9-6.3-3.75-2-6.64-2.38-7.15-1.53-5.78-1.53-5.78-2.72-7.83-2.55-8.51,1.53-6.81,1.53-7.32.17-6.47,0-7.32-3.41-6.13-3.41-6.13l-4.42-2.55L841.76,717l-3.58-5.62,2.05-.85,5.1-8L844,698.3s-3.4-4.26-3.91-4.43,0-4.76,0-4.76l-1.2-4.6-3.57-1.19-.51-4.77s1-5.1,1-5.78a35,35,0,0,1,1.36-4.43l.68-4.94-3.74-1.19-6-.34-7-.51-5.1-5.79-4.09-2-6.3-5.62-4.25-7.14-4.09-8.69-1.12-.23-4.49,4.75-.26,4.59,7.92,19.41,3.83,8.17-.77,7.66-6.38,5.36-10.47,5.36-4.85,6.13-7.15,2.29-.43,7.33h0s5.45,9.19,6.13,10.56,7.49,9.87,7.49,9.87,2,9.87,2.72,12.93,2.73,14,2.73,15-4.43,9.88-4.43,9.88-2,14.63-2,16-2,22.46-2,22.46l5.78,15.32-3.74,10.9L783,843.15l-.68,9.87-7.83,5.45-.34,12.93,4.09,6.47-3.75,10.9-5.44,9.87-1,6.47-6.13,14.63-8.51,3.41-.34,9.53-8.51,3.06-10.22,4.09-5.1,7.49,9.53,9.19,8.17,4.43,5.45,6.12,12.25,6.47,7.83,6.47-12.59,7.49-6.13,2s2.38,10.9,3.4,12.26,14.64,14,14.64,14l19.06,2,15-4.43,8.17-7.83L825.93,994l10.55-11.58,9.87-4.76,13.28-1,7.49-8.86.34-9.19-.68-4.42,3.74-10.56,4.77-6.8,5.11-4.09,3.74,11.92,7.49,5.44,5.79,10.21,2,8.18h9.19l16.34-.35,5.45-2.72-.68-6.13L924.31,947l-5.79-7.15-2-5.45v-7.49l9.87-9.19,8.86-7.15,9.53-12.93L956,895.23l8.85-2.72,10.56-3.4,4.76-6.81,4.77-8.51,6.81-5.11.29-7.1-2.68-3.45Z" transform="translate(-18.97 143.32)"/></g><g id="Bozen"><path class="cls-4" d="M838.18,711.4l3.58,5.62,7.66,4.09,4.42,2.55s3.24,5.28,3.41,6.13,0,6.81,0,7.32-1.36,6.63-1.53,7.32,2.55,8.51,2.55,8.51,1.19,5.27,1.53,5.78,1,6.3,2.38,7.15,6.3,3.75,6.3,3.75h2.9l1-8-.17-5.62,5.61-4.26,5.28-4.08s3.23-.34,3.91,0,7.15-1.7,7.15-1.7l5.11-2.56s3.06-.34,3.92.51,1.19,5.28,1.19,5.28l6.63,6,3.41,5.79s-1.46,3-2.24,4.7l.54.06,7.83.17.51-4.08,3.23-3.41,3.24.34,3.06,3.75,2.89,1,7-1.36,3.75-5.79.34-8.17,1.87-5.79,2.21-7.15-2-6.8-.68-9.54-2.21-5.44-8-4.26-9.88.68s-4.42-3.06-3.74-3.57-.68-4.26-.68-4.26l-5.28,1.36-5.28-.17L902,701l-4.93-2.72,2-2.73s4.77-4.42,5.11-5.78,0-5.11,0-5.79-3.92-3.57-4.6-3.57-5.79,3.91-5.79,3.91l-4.08,4.26-4.6.34-4.42.68-4.26,3.23-4.42,4.26-.51,3.91-4.6,2.55-4.6,1-12.59-.17-5.2-.67-4.33,6.79Z" transform="translate(-18.97 143.32)"/></g><g id="Salten-Schlern"><path class="cls-4" d="M1241.93,662.72c-1.7-.68-6.13-2-7.15-3.4s-.34-5.79-.34-6.81,3.4-4.43,4.77-4.77,9.87-3.4,11.57-4.08,10.55-4.43,10.55-4.43,0-6.8-.34-8.51.68-9.53.68-9.53l4.09-6.47L1264.4,610l-8.85-2.05-3.41-3.74-5.11.68-15-4.08L1221.5,598l-2.38-6.13-6.47-.68-4.42,1-4.09,6.12-8.85,3.41-13.28.68-5.44-2.73-.68-4.08s.34-6.47.34-8.17-4.09-2.38-4.09-2.38l-6.47,3.06-11.57.68-5.79,2-5.79,7.49h-6.12l-8.85-.34-6.13,5.45v7.83l-5.45,7.49-3.74,7.49-8.17-3.41-11.58-12.25-12.93-1.36-17-1L1051.63,611l-8.17,7.15L1035,627h-9.53l-12.6-1.36s-8.17-5.79-9.19-6.47-3.06-6.13-3.06-6.13l-9.88-1.36-18-4.77s-2.72-6.46-3.74-6.81-.68-12.59-.68-12.59,3.06-4.09,4.76-5.11,3.41-5.1,3.41-7.83a9.92,9.92,0,0,0-1.71-5.1l-4.42,2.72-4.09,9.19H962.1l-6.47-4.42v-6.81l.68-9.19-6.81-4.43-9.53-1.7s-1-5.79-1-6.81,2-3.06,3.06-4.77,4.77-3.4,5.79-4.08,4.09-6.81,4.43-8.85,4.08-7.49,4.08-7.49l2.38,2.72,9.88,1.7s3.74-5.44,5.78-6.46,11.24-5.11,11.24-5.11,8.17-6.13,11.91-9.19,4.43-5.11,4.43-5.11V489.11c0-1,4.76-3.75,4.76-3.75s6.13-7.83,7.49-10.21,1.71-5.79,2.39-8.51-2.39-8.85-2.39-8.85l-2.38-9.88L1007,438l-5.78-4.42v-9.54l-2.39-9.19.35-5.1L1003,406l-3.4-7.49v-9.19c0-1.36-2-7.15-2-7.15l-1.7-3.74-6.47.34-8.85-.68-4.08-2.05s-2.39-5.44-2.39-6.46-2.72-5.45-2.72-5.45l-8.85-1L956,367.23l-6.47-.68-7.15.34-6.46,8.85-5.45,6.47-3.75,2.39-3.74-.69-9.53-1.7-4.67.19L907.12,390l-8.17.25s-6.13,1.28-7.4,2.56-5.62,3.31-5.62,3.31l-9.45-1.27h-3.57s-.77-1.28-.77,3.32a26.62,26.62,0,0,1-1,7.66l-5.62,2.55-3.57,4.09v3.82l-3.07,11.49-1.53,6.9-6.64,3.06s-3.83.26-5.61,2-4.34,8.69-4.85,9.71a103.28,103.28,0,0,0-3.07,10.46c-.25,1.54,3.07,10.47,3.07,10.47l1.53,3.83-2.55,8.68,1.78,3.32-.51,3.07L839,494.64l6.89,4.85,3.32,4.34s-1,5.11-2,5.62-4.6,7.91-4.6,7.91l-1,5.11,2.3,11,3.32,5.87,3.06,4.59,2.3,6.9.51,3.83-1.53,7.66-3.32,12.25-7.4,12s-7.15,3.07-7.92,4.09-5.1,3.83-5.1,3.83h-7.66l-5.62,9.44L807,607.49s-6.38.25-7.14.77-7.15,2.55-7.41,3.82a22.37,22.37,0,0,1-1.79,4.09l2.3,11.74,3.32,3.83-.1.11,1.12.23,4.09,8.69,4.25,7.14,6.3,5.62,4.09,2,5.1,5.79,7,.51,6,.34,3.74,1.19-.68,4.94a35,35,0,0,0-1.36,4.43c0,.68-1,5.78-1,5.78l.51,4.77,3.57,1.19,1.2,4.6s-.51,4.59,0,4.76S844,698.3,844,698.3l1.36,4.25-5.1,8,4.33-6.78,5.2.66,12.59.17,4.6-1,4.6-2.55.51-3.91,4.42-4.26,4.26-3.23,4.42-.68,4.6-.34,4.08-4.26s5.11-3.91,5.79-3.91,4.6,2.89,4.6,3.57.34,4.43,0,5.79-5.11,5.78-5.11,5.78l-2,2.73L902,701l8.85,2.21,5.28.17,5.28-1.36s1.36,3.75.68,4.26,3.74,3.57,3.74,3.57l9.88-.68,8,4.26,2.21,5.44.68,9.54,2,6.8-2.21,7.15-1.87,5.79-.34,8.17-3.75,5.79-7,1.36-2.89-1-3.06-3.75-3.24-.34-3.23,3.41-.51,4.08-7.83-.17-.54-.06c-.26.55-.44,1-.48,1.08-.17.51-1.88,4.43-1.88,4.43l2.39,8.34-3.92,7s-3.57,5.79-3.57,6.47-1.53,7.14-1.53,7.14l-3.07,1L899,807.23s2,2.9.17,4.09-6.3,2-6.81,2-5.28.17-5.28.17l-1,5.11,2.22,3.06,8.51,4.43,6,1.53,4.77,6.13,5.28,2.89,9.87-.34,7.49-2.55,5.62,1.53,8.68,8.34,8.85,1.53,6,3.24,10.55,2h9.53l4.6,6.13,5.44,1.53,2.68,3.45,0-1.07s9.87.68,11.23,1.36,12.26,4.09,12.26,4.09l18,7.15,9.19,8.85,6.13-2.05,1.36-7.14,1.7-13.28,1-14.3,8.17-4.76,16.34-1.37,6.13-10.55L1088.4,805l5.78-7.49s2.39-6.47,3.41-6.81-.68-15-.68-15l1.7-11.91,4.42-13.62L1104.4,739l5.44-1,9.19-4.43.69-7.15-4.77-5.1-4.09-2.73.35-10.21,12.59,4.43,9.87,2.72,19.75-7.15,14-7.49,5.44-3.4,9.87,5.78,14,3.07,17.7-5.45,10.9-6.13,7.49-11.23s3.06-5.79,6.81-5.11a15.72,15.72,0,0,1,3,.89l1.46-8.38S1243.63,663.4,1241.93,662.72Z" transform="translate(-18.97 143.32)"/></g><g id="Eisacktal"><path class="cls-4" d="M998.86,414.89l2.39,9.19v9.54L1007,438l4.77,9.87,2.38,9.88s3.07,6.12,2.39,8.85-1,6.13-2.39,8.51-7.49,10.21-7.49,10.21-4.76,2.72-4.76,3.75v12.25s-.68,2-4.43,5.11-11.91,9.19-11.91,9.19-9.19,4.08-11.24,5.11-5.78,6.46-5.78,6.46l-9.88-1.7-2.38-2.72s-3.74,5.44-4.08,7.49-3.41,8.17-4.43,8.85-4.77,2.38-5.79,4.08S939,547,939,548s1,6.81,1,6.81l9.53,1.7,6.81,4.43-.68,9.19v6.81l6.47,4.42h4.08l4.09-9.19,4.42-2.72a9.92,9.92,0,0,1,1.71,5.1c0,2.73-1.71,6.81-3.41,7.83s-4.76,5.11-4.76,5.11-.34,12.25.68,12.59,3.74,6.81,3.74,6.81l18,4.77,9.88,1.36s2,5.45,3.06,6.13,9.19,6.47,9.19,6.47l12.6,1.36H1035l8.51-8.85,8.17-7.15,10.89-2.73,17,1,12.93,1.36,11.58,12.25,8.17,3.41,3.74-7.49,5.45-7.49v-7.83l6.13-5.45,8.85.34h6.12l5.79-7.49,5.79-2,11.57-.68,6.47-3.06s4.09.68,4.09,2.38-.34,8.17-.34,8.17l.68,4.08,5.44,2.73,13.28-.68,8.85-3.41,4.09-6.13,4.42-1,5.46.58c.16-1.07.24-1.68.24-1.68s4.09-5.88,8.94-9.19-.26-3.83-.26-4.86,3.58-4.34,3.58-4.34l7.66-.51a8.24,8.24,0,0,0-.51-3.06c-.51-.77.25-4.09.25-4.09l4.09-6.63s-4.85-3.07-5.62-3.32-10.21-6.13-10.21-6.13l-4.09-6.13s6.9-4.08,5.62-6.64a20,20,0,0,1-2-7.4c-.26-2.55.51-9.7.51-10.72s5.87-10.73,5.87-10.73,4.85-5.1,7.15-6.89,4.34-6.38,4.85-7.41,6.13-1,9.45-1.78,3.83-2.3,3.83-2.3l2-5.62-3.83-6.13,5.87-5.87s-2.81-2.55-3.57-2.55-6.81-14.81-6.81-14.81l3.4-7.83-6.8-3.74L1245,431.23l-6.47-.68-1.7-5.44s-2.72-4.43-3.74-5.79-1-6.81-1-6.81-4.43-8.17-4.77-9.87-1-6.81-1-6.81l-7.15.68-14-5.45-15-6.12-21.78-5.11-9.88-3.06-3.74-7.83s-7.83-.34-8.85-.69-1.36-7.14-1.36-8.51.68-10.21.68-10.21l3.74-21.1-2-9.88-4.43-10.21c-1-2.38-7.14-5.45-7.14-5.45l-2.05-7.49-4.08-8.17-5.79,1.37s-6.81.34-8.51.34-1.7-8.86-1.7-10.22,2.72-10.89,2.72-12.25-3.4-6.81-3.4-6.81l-6.81-9.19-7.83-3.75-6.81.68-8.51,5.45-2,6.47-7.49,6.13-2,7.15-.68,15,1.37,4.09,4.42,2,3.41,11.58-5.11,9.19-3.75,7.83,7.49,4.76,1,5.11-1.71,7.15-4.76,4.76-4.09,2.73s1.36,5.44,2.38,5.44h3.41l9.19-3.4,1,7.49,1.7,9.53,5.45,7.83,5.79,5.11,5.1,2.72,3.07,6.13-1,9.87-2.73,9.53,4.09,4.77,1.36,5.79L1100,422l-9.53,2.39-4.77-4.09-3.06-1.36-1,3.74-3.75,4.77h-7.49l-3.74-4.43-1.7-7.15-1.36-1.7-7.15,1.36-5.79-2.38-6.81-6.81-5.11,1.36-6.46,2.05-2.39,1.7-4.76,3.06-2.39,2.73-4.76-1.71-2.72-6.46-7.15-2.05-7.32,1.19-1.53,1.54Z" transform="translate(-18.97 143.32)"/></g><g id="Wipptal"><path class="cls-4" d="M1171.8,194.3s-2.38-14-3.4-14.3-6.81-5.45-7.83-5.45-6.47-6.47-7.83-6.47-14.64,2.73-16.34,2.73a53.67,53.67,0,0,0-7.15,1.36l-8.85-5.79-9.19-6.81-9.54-5.78a56.38,56.38,0,0,0-6.46-1.71c-1,0-14.64,3.41-14.64,3.41l-7.83,5.11-9.19,5.1-15,9.19s-12.6,7.49-14.3,9.19-7.15-13.27-7.15-13.27-2.72-3.41-5.79-4.09-9.53-6.47-10.55-6.81-8.85-6.12-8.85-6.12l-12.26,3.4L981.5,166s-2,3.75-3.06,4.43-11.58,3.4-11.58,3.4l-1.7,9.87-6.47,9.54s-10.89,3.4-11.91,3.74-15,.34-16.34.34-14-2-14-2-7.49-5.45-8.85-7.49-6.13-12.26-6.13-12.26l-10.21,1a45,45,0,0,1-5.45.68,70.15,70.15,0,0,1-7.83-1.37l-4.08-.68-17,3.07s-14,3.06-15.32,3.74-16.34,5.45-16.34,5.45-2.73,5.79-4.43,6.47a150.07,150.07,0,0,1-16,3.4c-1.36,0-9.19,2.38-9.19,2.38l-11.23,2.73-5.11-1.36L770.44,198s-4.43,1.36-6.81,3.41-8.17,6.12-8.17,6.12l-2,9.54s-.2,3.11-.5,6.17l4.84.72,5.87,1.28,5.11,5.87,2.29,4.34a28.25,28.25,0,0,0,4.09,1.53c1.28.26,8.94,3.83,8.94,3.83s1.53,5.11,1.53,6.89-1,17.88-1,17.88.25,18.89,1,19.66S791,296.77,791,296.77l-1.28,15.06-.51,10.47,21.7,9.19,6.13,6.13,7.92,1.27,13,1.54,12,.76,13.79,2.3,9.95-2s6.39,4.34,7.41,5.1,10.21,5.88,10.21,5.88l5.36,2.55s2.81,8.68,4.34,12.76,2.56,6.13,2.56,6.13l5.61,6.64-.41,1.89,4.67-.19,9.53,1.7,3.74.69,3.75-2.39,5.45-6.47,6.46-8.85,7.15-.34,6.47.68,6.47-4.08,8.85,1s2.72,4.43,2.72,5.45,2.39,6.46,2.39,6.46l4.08,2.05,8.85.68,6.47-.34,1.7,3.74s2,5.79,2,7.15v9.19L1003,406l-3.74,3.75,1.53-1.54,7.32-1.19,7.15,2.05,2.72,6.46,4.76,1.71,2.39-2.73,4.76-3.06,2.39-1.7,6.46-2.05,5.11-1.36,6.81,6.81,5.79,2.38,7.15-1.36,1.36,1.7,1.7,7.15,3.74,4.43h7.49l3.75-4.77,1-3.74,3.06,1.36,4.77,4.09L1100,422l7.49-4.42-1.36-5.79-4.09-4.77,2.73-9.53,1-9.87-3.07-6.13-5.1-2.72-5.79-5.11-5.45-7.83-1.7-9.53-1-7.49-9.19,3.4H1071c-1,0-2.38-5.44-2.38-5.44l4.09-2.73,4.76-4.76,1.71-7.15-1-5.11-7.49-4.76,3.75-7.83,5.11-9.19-3.41-11.58-4.42-2-1.37-4.09.68-15,2-7.15,7.49-6.13,2-6.47,8.51-5.45,4.28-.42.49-2.64.68-8.17,1-4.43,4.08-6.12s9.88-2.39,10.9-2.39h8.51l6.81-2.38,6.12.68,11.58,2.38h6.13l7.49-5.1H1165s6.47,1.36,7.49,1.36a18.18,18.18,0,0,0,3.75-1l2.38-4.77,2,.34,8.17.68-.34-3.74,2-4.43,4.09-7.15.58-3.09-7.39,1Z" transform="translate(-18.97 143.32)"/></g><g id="Pustertal"><path class="cls-4" d="M1194.61,200.08l-4.09,7.15-2,4.43.34,3.74-8.17-.68-2-.34-2.38,4.77a18.18,18.18,0,0,1-3.75,1c-1,0-7.49-1.36-7.49-1.36h-5.78l-7.49,5.1h-6.13L1134,221.53l-6.12-.68-6.81,2.38h-8.51c-1,0-10.9,2.39-10.9,2.39l-4.08,6.12-1,4.43-.68,8.17-.49,2.64,2.53-.26,7.83,3.75,6.81,9.19s3.4,5.45,3.4,6.81-2.72,10.89-2.72,12.25,0,10.22,1.7,10.22,8.51-.34,8.51-.34l5.79-1.37,4.08,8.17,2.05,7.49s6.12,3.07,7.14,5.45l4.43,10.21,2,9.88-3.74,21.1s-.68,8.85-.68,10.21.34,8.17,1.36,8.51,8.85.69,8.85.69l3.74,7.83,9.88,3.06,21.78,5.11,15,6.12,14,5.45,7.15-.68s.68,5.11,1,6.81,4.77,9.87,4.77,9.87,0,5.45,1,6.81,3.74,5.79,3.74,5.79l1.7,5.44,6.47.68,2.73,10.22,6.8,3.74-3.4,7.83s6,14.81,6.81,14.81,3.57,2.55,3.57,2.55l-5.87,5.87,3.83,6.13-2,5.62s-.51,1.53-3.83,2.3-8.94.76-9.45,1.78-2.55,5.62-4.85,7.41-7.15,6.89-7.15,6.89-5.87,9.7-5.87,10.73-.77,8.17-.51,10.72a20,20,0,0,0,2,7.4c1.28,2.56-5.62,6.64-5.62,6.64l4.09,6.13s9.45,5.87,10.21,6.13,5.62,3.32,5.62,3.32l-4.09,6.63s-.76,3.32-.25,4.09a8.24,8.24,0,0,1,.51,3.06l-7.66.51s-3.58,3.32-3.58,4.34,5.11,1.54.26,4.86-8.94,9.19-8.94,9.19-.08.61-.24,1.68l-5.46-.58,6.47.68,2.38,6.13,10.56,2.73,15,4.08,5.11-.68,3.41,3.74,8.85,2.05,1.36,4.76-4.09,6.47s-1,7.83-.68,9.53.34,8.51.34,8.51-8.85,3.75-10.55,4.43-10.21,3.74-11.57,4.08-4.77,3.75-4.77,4.77-.68,5.45.34,6.81,5.45,2.72,7.15,3.4,2,8.17,2,8.17l-1.46,8.38a29.41,29.41,0,0,1,4.87,2.52l4.76,9.87,1,4.42,10.9-3.74,21.1-2,10.56-3.07,11.57-7.49,8.17-3.74,12.26-.34,12.93,3.4,8.17-15.32,10.21-4.42,12.26,1.7,9.87,6.13,3.07.68,11.91-14.64,6.81-9.53,9.53-17.7,4.77-10.56,5.1-15.66,3.07-14.63,7.83-21.79,2-23.83-.68-17s1.36-3.75,2.38-3.75h8.17s3.41.34,3.75,2.39S1455,532,1455,532l8.86,7.15L1474.1,547l12.59,8.17,12.94,7.83,7.49-3.07,9.19,5.11,7.15,7.15,9.19,4.08-3.4,17,.34,8.51,20.08-11.24,10.22-8.51,8.85-6.13s1.7-6.12,4.08-6.12,14.3,5.44,14.3,5.44l16.34,4.43,12.6-1.7,9.53-14,18.38,3.74,7.49,8.86,11.57-1.37,8.52-5.1,4.08-4.43-4.08-9.53-2.39-5.45,10.9-1,8.51-.34,18-24.17,12.25-7.49,23.49-6.47,9.54-2.72s-11.58-8.51-14-8.51-25.87-3.75-25.87-3.75a72.78,72.78,0,0,0-7.15-4.42c-1.7-.68-11.58-7.15-12.6-7.49s-12.25-8.51-12.25-8.51l-7.49-6.13-17-48.34L1652.48,405l-28.93-9.53-19.07,1.36-7.49-2,2.39-16.34L1598,362.81l4.43-5.79,8.51-7.15,6.13-10.89s-5.11-6.47-6.81-6.47-8.85-2.72-8.85-2.72l.68-10.22,1-10.55L1598,304.6l-6.12-6.47V287.91a63.08,63.08,0,0,0-8.17-1c-2.73,0-9.54-1-9.54-1l-5.1-1-3.41-.68-10.21,9.19s-10.21,2.38-10.21,3.41-7.49,1-7.49,1l-9.53-31-3.75-5.11-25.87.34-6.47-1.7s-2.72-4.77-1-5.79,9.19-5.44,10.21-5.78,6.13-6.81,6.13-6.81l.68-7.15s.34-7.15,0-8.17-2.72-5.11-2.72-5.11-1.36-7.49-3.41-7.83-9.53-1.7-9.53-1.7l-5.45-6.13-1.36-8.85-2.38-12.25-4.43-17.71-2.72-8.17,2.38-10.55,3.75-8.17,14.64-1.36,21.1-1.36,17.71-6.47,2.72-9.19,4.42-15.32,3.07-10.22,11.57-1.7,2.73-7.15,1-8.85s.34-4.42-3.07-4.76-10.55-4.09-12.93-4.09-7.49-1.7-7.49-1.7l-9.19-6.13h-9.19s-6.81,5.45-8.17,6.13-14.64,4.77-14.64,4.77l-6.13,1a61.1,61.1,0,0,0-9.87,2.38l-14.3,2.72-19.41,3.41-4.76,12.59s-4.09,2-5.45,2H1420l-7.83,3.4-6.81,6.81-9.53,3.4s-18-.34-21.45,0-14.63,2-14.63,2l-15.66,7.48-7.15,5.11-11.58-.34L1314.44,130s-9.87,5.78-12.94,7.83-13.61,8.51-17,9.87S1264.74,163,1264.74,163l-8.51,8.85s-6.47,2.72-8.51,2.72-14.3,0-18.73.68-2.72,1-7.83,1.37a42.55,42.55,0,0,0-8.51,1.36l-12.93,18.38-10.51,1.5,6-.85Z" transform="translate(-18.97 143.32)"/></g></svg>