<svg xmlns="http://www.w3.org/2000/svg" viewBox="0 0 1585.34 956.92"><defs><style>.cls-1,.cls-4{fill:none;}.cls-1{stroke:#000;}.cls-1,.cls-2,.cls-4{stroke-miterlimit:10;}.cls-2,.cls-3{fill:#fff;}.cls-2,.cls-4{stroke:red;stroke-width:8px;}</style></defs><g id="Outline"><path class="cls-1" d="M514.72,420.17l-26.89.34L478,415.4l-31.32-1.7-12.94,6.13-26.89,3.74-28.6-16.34L366,412.68l-5.79-1.7L350,388.17,323.4,399.06l-20.08-1.7-6.13-4.08-1.7-7.49,8.17-4.09,12.6-11.23,4.08-10.56-.68-8.17L302,343.57l-8.85-1.7-18.05-14-5.44-14.29-16.34-8.85-53.45,14.29-16.68,20.09-12.94,2.38-3.4-11.91-9.53-1.36-11.58,1-14-.34-12.93-2.39L112,319.74h-6.13l-4.76,21.45L96,345.62l-3.74,29.95L72.51,386.13v10.55L80,405.87,82.38,414l.34,18L54.81,452.17l9.87,23.49L49.36,491l-6.47,8.51-4.42,2.38,4.08,20.43,2.73,14.3,7.15,23.83,20.76-1L85.11,554l8.51,7.49,8.85,5.44,15,14v5.79L112,605l1.36,14s-3.74,4.42-4.08,5.79l-4.09,16.34s-.68,11.91-.68,14.29-6.47,6.81-7.83,7.83-8.17,7.49-8.17,7.49v18l8.85,20.76,12.94,7.15,6.13-3.4L129,712.6l14,3.74,13.28,5.45,12.59,6.12,13.28,11.92,12.59,4.77,11.92,13.27,5.1,9.53,12.6,3.75L238,767.74l11.23-2.38,11.58.68,4.76-5.78,7.15-3.41,10.55.68,1-5.44,4.42-7.83,7.49-6.81,3.74-3.41,10.9-5.1,12.93,4.76s3.75,6.81,4.43,8.17,6.13,14,6.13,14l6.13,15.66,8.85,4.77,19.4,3.74,20.43,1.36h7.49l5.44-9.87s7.83-3.06,9.87-3.06,13.28,5.44,13.28,5.44l10.21-1,12.26-11.91L453.79,748l11.91-3.4,9.87-8.86,8.17-3.74,11.58,3.4s8.17,7.83,9.19,8.51,11.92,10.9,11.92,10.9l8.85,8.85,10.89,10.89,12.94,4.09,7.49-.68L558,762.64l-3.41-8.51-3.4-11.24-4.09-12.59L543,717.7l-3.41-5.79-8.17-5.44-7.49-5.79,5.11-6.13h10.21l12.26-5.1,5.79-6.81s4.42,1,5.1,2.72-.68,17.36-.68,17.36-1.7,6.81-.68,8.17,8.51,10.9,8.51,10.9L580.77,730l11.91,4.42L603.23,733l12.26-4.42,4.42-5.79,6.81-7.15,9.19-1.7,7.49-7.15s5.45,9.19,6.13,10.55,7.49,9.87,7.49,9.87,2,9.88,2.72,12.94,2.73,14,2.73,15S658,765,658,765s-2,14.64-2,16-2,22.47-2,22.47l5.78,15.32L656,829.7l-2.72,17.36-.68,9.88-7.83,5.44-.34,12.94,4.08,6.47-3.74,10.89-5.45,9.87-1,6.47-6.13,14.64-8.51,3.4-.34,9.54-8.51,3.06-10.21,4.08-5.11,7.49,9.53,9.2,8.17,4.42,5.45,6.13,12.25,6.47,7.83,6.46-12.59,7.49L624,993.45s2.38,10.89,3.4,12.25,14.64,14,14.64,14l19.07,2,15-4.42,8.17-7.83,11.91-11.58,10.55-11.57,9.88-4.77,13.27-1,7.49-8.85.34-9.19L737,958l3.75-10.55,4.76-6.81,5.11-4.08,3.74,11.91,7.49,5.45,5.79,10.21,2,8.17h9.19l16.34-.34,5.45-2.72-.68-6.13-5.45-12.26-5.78-7.15-2-5.44v-7.49l9.88-9.19,8.85-7.15L815,901.53l11.23-2.38,8.85-2.72L845.62,893l4.76-6.81,4.77-8.51,6.81-5.1.34-8.17s9.87.68,11.23,1.36,12.26,4.08,12.26,4.08l18,7.15,9.19,8.85,6.13-2,1.36-7.15,1.7-13.28,1-14.29,8.17-4.77L947.74,843l6.13-10.55,4.77-23.49,5.79-7.49s2.38-6.47,3.4-6.81-.68-15-.68-15l1.7-11.92,4.43-13.61,1.36-11.24,5.45-1,9.19-4.42.68-7.15-4.77-5.11-4.08-2.72.34-10.21L994,716.68l9.87,2.72,19.75-7.14,14-7.49,5.44-3.41,9.88,5.79,14,3.06,17.71-5.44,10.89-6.13L1103,687.4s3.06-5.78,6.81-5.1a25.29,25.29,0,0,1,7.83,3.4l4.76,9.87,1,4.43,10.9-3.74,21.1-2,10.56-3.06,11.57-7.49,8.17-3.75,12.26-.34,12.93,3.41,8.17-15.32,10.22-4.43,12.25,1.71,9.87,6.12,3.07.68,11.91-14.63,6.81-9.54,9.53-17.7,4.77-10.55,5.11-15.66,3.06-14.64,7.83-21.79,2-23.83-.68-17s1.36-3.74,2.38-3.74h8.17s3.41.34,3.75,2.38,6.13,10.89,6.13,10.89l8.85,7.15,10.21,7.83,12.6,8.17,12.93,7.83,7.49-3.06,9.19,5.11,7.15,7.15,9.19,4.08-3.4,17,.34,8.51,20.08-11.23,10.22-8.51,8.85-6.13s1.7-6.13,4.08-6.13,14.3,5.45,14.3,5.45l16.34,4.42,12.6-1.7,9.53-14,18.38,3.75,7.49,8.85,11.58-1.36,8.51-5.11,4.08-4.42-4.08-9.53-2.39-5.45,10.9-1,8.51-.34,18-24.17,12.26-7.49,23.49-6.47,9.53-2.72s-11.58-8.52-14-8.52-25.87-3.74-25.87-3.74a74.44,74.44,0,0,0-7.15-4.43c-1.7-.68-11.58-7.14-12.6-7.48s-12.25-8.52-12.25-8.52l-7.49-6.12-17-48.34-3.07-16.34-28.93-9.54-19.07,1.37-7.49-2,2.39-16.34-1.36-15.66,4.42-5.78,8.51-7.15,6.13-10.9s-5.11-6.46-6.81-6.46-8.85-2.73-8.85-2.73l.68-10.21,1-10.55-5.1-4.43-6.13-6.47V291.83a63.08,63.08,0,0,0-8.17-1c-2.73,0-9.53-1-9.53-1l-5.11-1-3.41-.68-10.21,9.19s-10.21,2.38-10.21,3.4-7.49,1-7.49,1l-9.53-31-3.75-5.1-25.87.34-6.47-1.7s-2.72-4.77-1-5.79,9.19-5.45,10.21-5.79,6.13-6.81,6.13-6.81l.68-7.15s.34-7.15,0-8.17-2.72-5.1-2.72-5.1-1.36-7.49-3.4-7.83-9.54-1.71-9.54-1.71l-5.44-6.12-1.37-8.85-2.38-12.26-4.42-17.7-2.73-8.17,2.39-10.55,3.74-8.17,14.64-1.37,21.11-1.36,17.7-6.47,2.72-9.19,4.43-15.32,3.06-10.21,11.57-1.7,2.73-7.15,1-8.85s.34-4.43-3.06-4.77-10.56-4.08-12.94-4.08-7.49-1.71-7.49-1.71l-9.19-6.12h-9.19s-6.81,5.44-8.17,6.12-14.64,4.77-14.64,4.77l-6.13,1a60.34,60.34,0,0,0-9.87,2.39l-14.3,2.72-19.4,3.4-4.77,12.6s-4.08,2-5.45,2h-16.68l-7.83,3.41-6.81,6.8-9.53,3.41s-18-.34-21.44,0-14.64,2-14.64,2L1214.3,124l-7.15,5.11-11.58-.34-10.89,5.1s-9.87,5.79-12.94,7.83-13.61,8.51-17,9.87S1135,166.89,1135,166.89l-8.51,8.85s-6.47,2.73-8.51,2.73-14.3,0-18.73.68-2.72,1-7.83,1.36a42.55,42.55,0,0,0-8.51,1.36L1070,200.26,1058,202l-16-3.75s-2.38-14-3.4-14.3-6.81-5.44-7.83-5.44S1024.34,172,1023,172s-14.64,2.72-16.34,2.72a53.65,53.65,0,0,0-7.15,1.37l-8.85-5.79-9.19-6.81-9.54-5.79a56.65,56.65,0,0,0-6.46-1.7c-1,0-14.64,3.4-14.64,3.4L943,164.51l-9.19,5.11-15,9.19s-12.6,7.49-14.3,9.19-7.15-13.28-7.15-13.28-2.72-3.4-5.79-4.08S882,164.17,881,163.83s-8.85-6.13-8.85-6.13l-12.26,3.41L851.74,170s-2,3.74-3.06,4.42-11.57,3.41-11.57,3.41l-1.71,9.87-6.46,9.53S818,200.6,817,200.94s-15,.34-16.34.34-14-2.05-14-2.05-7.49-5.44-8.85-7.49-6.13-12.25-6.13-12.25l-10.21,1a45,45,0,0,1-5.44.68,70.18,70.18,0,0,1-7.83-1.36l-4.09-.68-17,3.06s-14,3.07-15.32,3.75-16.34,5.44-16.34,5.44-2.72,5.79-4.43,6.47a149.65,149.65,0,0,1-16,3.41c-1.36,0-9.19,2.38-9.19,2.38l-11.23,2.72L649.53,205,640.68,202s-4.42,1.36-6.81,3.4-8.17,6.13-8.17,6.13l-2,9.53s-.68,10.55-1.36,11.92-4.77,5.78-4.77,5.78l-6.81,5.11-7.49,3.74-12.59-4.42-3.07,3.74-2.38,8.51-2.38,2.39L578,261.53s-2.72,2-2.72,3.07,4.08,12.93,4.08,12.93L575,286s-7.49,14-7.83,15-7.83,12.26-7.83,12.26-3.41,13.27-3.41,15-1,12.93,0,15.31,4.09,10.56,4.43,12.94-2.72,9.19-2.72,9.19l-14.3,8.17L532.09,380s-.69,9.87-1,11.57-7.15,9.54-7.83,10.9S516.09,414,516.09,414Z" transform="translate(-37.91 -65.29)"/></g><g id="Bezirke-background"><g id="Vinschgau"><path class="cls-1" d="M323.74,726.21l5.45-9.19,15-11.23,11.23-15.66,3.75-11.92s9.53-1,10.89-1,6.47-9.87,6.47-9.87h11.58c1.36,0,8.17-6.13,8.17-6.13l4.42-7.15,8.85-7.15L427.23,636s10.56,2,12.6,2,11.91-5.1,13.62-5.78,13.95-4.43,15-4.43S479,622.72,479,622.72s2.72-8.17,2-10.55-3.4-20.43-3.4-20.43-.68-7.14-.68-9.19,1-11.57,1.36-14.29-3.75-8.86-3.75-8.86L466.38,558l-8.51-6.47-3.06-7.83,4.08-.34s7.83,3.07,9.2,3.07,9.19-2.73,9.19-2.73l-10.56-8.85-11.06-12.08,9.7-10.72L474,510l11.24,3.07,6.63-3.58,7.66-8.93-7.66-6.9S484,486.55,483,486s-3.58-4.85-3.58-4.85,0-5.1.26-7.4,5.36-1.28,6.64-1.28,3.06-5.62,3.57-7.15,5.87-8.42,6.64-8.68a73.34,73.34,0,0,1,7.92-1.53c2.29-.26,6.12-4.85,7.14-5.36s8.69-.26,8.69-.26l9.7-3.32.25-5.87-6.38-5.87-6.13-3.32-1.79-6.64L514,420.18l-26.13.33L478,415.4l-31.32-1.7-12.94,6.13-26.89,3.74-28.6-16.34L366,412.68l-5.79-1.7L350,388.17,323.4,399.06l-20.08-1.7-6.13-4.08-1.7-7.49,8.17-4.09,12.6-11.23,4.08-10.56-.68-8.17L302,343.57l-8.85-1.7-18.05-14-5.44-14.29-16.34-8.85-53.45,14.29-16.68,20.09-12.94,2.38-3.4-11.91-9.53-1.36-11.58,1-14-.34-12.93-2.39L112,319.74h-6.13l-4.76,21.45L96,345.62l-3.74,29.95L72.51,386.13v10.55L80,405.87,82.38,414l.34,18L54.81,452.17l9.87,23.49L49.36,491l-6.47,8.51-4.42,2.38,4.08,20.43,2.73,14.3,7.15,23.83,20.76-1L85.11,554l8.51,7.49,8.85,5.44,15,14v5.79L112,605l1.36,14s-3.74,4.42-4.08,5.79l-4.09,16.34s-.68,11.91-.68,14.29-6.47,6.81-7.83,7.83-8.17,7.49-8.17,7.49v18l8.85,20.76,12.94,7.15,6.13-3.4L129,712.6l14,3.74,13.28,5.45,12.59,6.12,13.28,11.92,12.59,4.77,11.92,13.27,5.1,9.53,12.6,3.75L238,767.74l11.23-2.38,11.58.68,4.76-5.78,7.15-3.41,10.55.68,1-5.44,4.42-7.83,7.49-6.81,3.74-3.41,10.9-5.1,7.59,2.79.24-.41Z" transform="translate(-37.91 -65.29)"/></g><g id="Burggrafenamt"><path class="cls-1" d="M651,697.19l4.85-6.13,10.47-5.36,6.38-5.36.77-7.66-3.83-8.17-7.92-19.4.26-4.6,4.59-4.85-3.32-3.83-2.29-11.74a22.53,22.53,0,0,0,1.78-4.09c.26-1.28,6.64-3.32,7.41-3.83s7.15-.77,7.15-.77l7.4-3.57,5.62-9.45H698s4.34-2.81,5.1-3.83,7.92-4.08,7.92-4.08l7.4-12,3.32-12.26,1.53-7.66-.51-3.83-2.29-6.89-3.07-4.6L714,537.36l-2.3-11,1-5.1s3.57-7.41,4.59-7.92,2-5.62,2-5.62l-3.31-4.34-6.9-4.85,1.53-5.36.51-3.06-1.78-3.32,2.55-8.68-1.53-3.83s-3.32-8.94-3.07-10.47a103.49,103.49,0,0,1,3.07-10.47c.51-1,3.06-7.91,4.85-9.7s5.62-2,5.62-2l6.63-3.07,1.54-6.89,3.06-11.49v-3.83l3.57-4.08,5.62-2.56a26.53,26.53,0,0,0,1-7.66c0-4.59.77-3.32.77-3.32h3.57l9.45,1.28s4.34-2,5.62-3.32,7.4-2.55,7.4-2.55l8.17-.26,2-9.44-5.61-6.64s-1-2.05-2.56-6.13-4.34-12.77-4.34-12.77l-5.36-2.55s-9.19-5.11-10.21-5.87-7.41-5.11-7.41-5.11l-9.95,2-13.79-2.29-12-.77-13-1.53-7.92-1.28-6.12-6.13-21.71-9.19.51-10.47,1.28-15.06s-4.59-10.72-5.36-11.49-1-19.66-1-19.66,1-16.08,1-17.87-1.53-6.89-1.53-6.89-7.66-3.58-8.94-3.83a29.43,29.43,0,0,1-4.08-1.54l-2.3-4.34-5.11-5.87L628,227.91l-4.83-.71a30.22,30.22,0,0,1-.87,5.74c-.68,1.36-4.77,5.78-4.77,5.78l-6.81,5.11-7.49,3.74-12.59-4.42-3.07,3.74-2.38,8.51-2.38,2.39L578,261.53s-2.72,2-2.72,3.07,4.08,12.93,4.08,12.93L575,286s-7.49,14-7.83,15-7.83,12.26-7.83,12.26-3.41,13.27-3.41,15-1,12.93,0,15.31,4.09,10.56,4.43,12.94-2.72,9.19-2.72,9.19l-14.3,8.17L532.09,380s-.69,9.87-1,11.57-7.15,9.54-7.83,10.9S516.09,414,516.09,414l-1.37,6.13-26.89.34,26.13-.33,1.95,4.33,1.79,6.64,6.13,3.32,6.38,5.87-.25,5.87-9.7,3.32s-7.66-.25-8.69.26-4.85,5.1-7.14,5.36a73.34,73.34,0,0,0-7.92,1.53c-.77.26-6.13,7.15-6.64,8.68s-2.3,7.15-3.57,7.15-6.39-1-6.64,1.28-.26,7.4-.26,7.4S482,485.53,483,486s8.93,7.66,8.93,7.66l7.66,6.9-7.66,8.93-6.63,3.58L474,510l-8.68,2.05-9.7,10.72,11.06,12.08,10.56,8.85s-7.83,2.73-9.19,2.73-9.2-3.07-9.2-3.07l-4.08.34,3.06,7.83,8.51,6.47,8.17,1.36s4.09,6.13,3.75,8.86-1.36,12.25-1.36,14.29.68,9.19.68,9.19,2.72,18,3.4,20.43-2,10.55-2,10.55-9.53,5.11-10.55,5.11-13.28,3.74-15,4.43S441.87,638,439.83,638s-12.6-2-12.6-2l-17.7,10.89L400.68,654l-4.42,7.15s-6.81,6.13-8.17,6.13H376.51s-5.11,9.87-6.47,9.87-10.89,1-10.89,1l-3.75,11.92-11.23,15.66-15,11.23-5.45,9.19-5.1,5.11-.24.41-7.59-2.79,12.93,4.76s3.75,6.81,4.43,8.17,6.13,14,6.13,14l6.13,15.66,8.85,4.77,19.4,3.74,20.43,1.36h7.49l5.44-9.87s7.83-3.06,9.87-3.06,13.28,5.44,13.28,5.44l10.21-1,12.26-11.91L453.79,748l11.91-3.4,9.87-8.86,8.17-3.74,11.58,3.4s8.17,7.83,9.19,8.51,11.92,10.9,11.92,10.9l8.85,8.85,10.89,10.89,12.94,4.09,7.49-.68L558,762.64l-3.41-8.51-3.4-11.24-4.09-12.59L543,717.7l-3.41-5.79-8.17-5.44-7.49-5.79,5.11-6.13h10.21l12.26-5.1,5.79-6.81s4.42,1,5.1,2.72-.68,17.36-.68,17.36-1.7,6.81-.68,8.17,8.51,10.9,8.51,10.9L580.77,730l11.91,4.42L603.23,733l12.26-4.42,4.42-5.79,6.81-7.15,9.19-1.7,7.49-7.15h0l.42-7.32Z" transform="translate(-37.91 -65.29)"/></g><g id="Überetsch-Unterland"><path class="cls-1" d="M854.13,860.51l-4.6-6.13H840l-10.55-2-6-3.23-8.85-1.54L806,839.23l-5.62-1.53-7.49,2.56-9.87.34-5.28-2.9-4.76-6.13L767,830l-8.51-4.42-2.21-3.07,1-5.1s4.76-.17,5.27-.17,4.94-.85,6.81-2-.17-4.08-.17-4.08l1.19-6.13,3.07-1s1.53-6.47,1.53-7.15,3.57-6.47,3.57-6.47l3.92-7-2.38-8.34s1.7-3.91,1.87-4.42,2.72-5.79,2.72-5.79l-3.4-5.79-6.64-5.95s-.34-4.43-1.19-5.28-3.92-.51-3.92-.51l-5.1,2.55s-6.47,2-7.15,1.7-3.92,0-3.92,0l-5.27,4.09-5.62,4.25.17,5.62-1,8h-2.9s-4.93-2.89-6.29-3.74-2-6.64-2.39-7.15-1.53-5.79-1.53-5.79-2.72-7.83-2.55-8.51,1.53-6.81,1.53-7.32.17-6.47,0-7.32-3.4-6.13-3.4-6.13L719.66,725,712,720.94l-3.57-5.62,2-.85,5.1-8-1.36-4.26s-3.4-4.25-3.91-4.42,0-4.77,0-4.77l-1.19-4.59-3.58-1.2-.51-4.76s1-5.11,1-5.79a35.29,35.29,0,0,1,1.36-4.42l.69-4.94-3.75-1.19-6-.34-7-.51-5.1-5.79-4.09-2-6.3-5.62-4.25-7.15L667.57,636l-1.11-.24-4.5,4.75-.26,4.6,7.92,19.4,3.83,8.17-.77,7.66-6.38,5.36-10.47,5.36L651,697.19l-7.15,2.3-.42,7.32h0s5.45,9.19,6.13,10.55,7.49,9.87,7.49,9.87,2,9.88,2.72,12.94,2.73,14,2.73,15S658,765,658,765s-2,14.64-2,16-2,22.47-2,22.47l5.78,15.32L656,829.7l-2.72,17.36-.68,9.88-7.83,5.44-.34,12.94,4.08,6.47-3.74,10.89-5.45,9.87-1,6.47-6.13,14.64-8.51,3.4-.34,9.54-8.51,3.06-10.21,4.08-5.11,7.49,9.53,9.2,8.17,4.42,5.45,6.13,12.25,6.47,7.83,6.46-12.59,7.49L624,993.45s2.38,10.89,3.4,12.25,14.64,14,14.64,14l19.07,2,15-4.42,8.17-7.83,11.91-11.58,10.55-11.57,9.88-4.77,13.27-1,7.49-8.85.34-9.19L737,958l3.75-10.55,4.76-6.81,5.11-4.08,3.74,11.91,7.49,5.45,5.79,10.21,2,8.17h9.19l16.34-.34,5.45-2.72-.68-6.13-5.45-12.26-5.78-7.15-2-5.44v-7.49l9.88-9.19,8.85-7.15L815,901.53l11.23-2.38,8.85-2.72L845.62,893l4.76-6.81,4.77-8.51,6.81-5.1.29-7.11L859.57,862Z" transform="translate(-37.91 -65.29)"/></g><g id="Bozen"><path class="cls-1" d="M708.43,715.32l3.57,5.62,7.66,4.08,4.43,2.55s3.23,5.28,3.4,6.13,0,6.81,0,7.32-1.36,6.64-1.53,7.32,2.55,8.51,2.55,8.51,1.19,5.28,1.53,5.79,1,6.3,2.39,7.15,6.29,3.74,6.29,3.74h2.9l1-8-.17-5.62,5.62-4.25,5.27-4.09s3.24-.34,3.92,0,7.15-1.7,7.15-1.7l5.1-2.55s3.07-.34,3.92.51,1.19,5.28,1.19,5.28l6.64,5.95,3.4,5.79s-1.46,3-2.24,4.71l.54.06,7.83.17.51-4.09,3.23-3.4,3.24.34,3.06,3.74,2.89,1,7-1.36,3.75-5.78.34-8.17,1.87-5.79,2.21-7.15-2-6.81-.68-9.53L814,717.36l-8-4.25-9.87.68s-4.43-3.07-3.75-3.58-.68-4.25-.68-4.25l-5.28,1.36-5.27-.17-8.85-2.21-4.94-2.73,2-2.72s4.77-4.43,5.11-5.79,0-5.1,0-5.79-3.92-3.57-4.6-3.57-5.78,3.92-5.78,3.92L760,692.51l-4.6.34-4.42.68-4.26,3.24L742.3,701l-.51,3.92-4.6,2.55-4.59,1-12.6-.17-5.2-.66-4.33,6.79Z" transform="translate(-37.91 -65.29)"/></g><g id="Salten-Schlern"><path class="cls-1" d="M1112.17,666.64c-1.7-.68-6.13-2-7.15-3.41s-.34-5.78-.34-6.8,3.41-4.43,4.77-4.77,9.87-3.4,11.57-4.09,10.55-4.42,10.55-4.42,0-6.81-.34-8.51.68-9.53.68-9.53l4.09-6.47-1.36-4.77-8.85-2-3.41-3.74-5.1.68-15-4.09L1091.74,602l-2.38-6.13-6.47-.68-4.42,1-4.09,6.13-8.85,3.4-13.27.68-5.45-2.72-.68-4.09s.34-6.46.34-8.17-4.09-2.38-4.09-2.38l-6.47,3.07-11.57.68-5.79,2-5.78,7.49h-6.13l-8.85-.34-6.13,5.44v7.83l-5.45,7.49-3.74,7.49-8.17-3.4-11.58-12.26-12.93-1.36-17-1-10.9,2.72L913.7,622l-8.51,8.85h-9.53l-12.6-1.36s-8.17-5.79-9.19-6.47-3.06-6.12-3.06-6.12l-9.87-1.37-18.05-4.76s-2.72-6.47-3.74-6.81-.68-12.6-.68-12.6,3.06-4.08,4.76-5.1,3.41-5.11,3.41-7.83a10,10,0,0,0-1.7-5.11l-4.43,2.73-4.08,9.19h-4.09l-6.47-4.43V574l.68-9.19-6.81-4.42-9.53-1.71s-1-5.78-1-6.81,2-3.06,3.07-4.76,4.76-3.41,5.78-4.09,4.09-6.8,4.43-8.85,4.08-7.49,4.08-7.49l2.39,2.73,9.87,1.7s3.74-5.45,5.79-6.47,11.23-5.11,11.23-5.11,8.17-6.12,11.91-9.19,4.43-5.1,4.43-5.1V493c0-1,4.77-3.74,4.77-3.74s6.12-7.83,7.49-10.22,1.7-5.78,2.38-8.51-2.38-8.85-2.38-8.85L882,451.83,877.28,442l-5.79-4.43V428l-2.38-9.19.34-5.11,3.74-3.74-3.4-7.49v-9.19c0-1.37-2-7.15-2-7.15l-1.7-3.75-6.47.34-8.85-.68-4.08-2s-2.38-5.45-2.38-6.47-2.73-5.44-2.73-5.44l-8.85-1-6.47,4.09-6.47-.68-7.14.34-6.47,8.85-5.45,6.47-3.74,2.38-3.75-.68-9.53-1.7-4.66.18-1.64,7.56-8.17.26s-6.13,1.27-7.4,2.55-5.62,3.32-5.62,3.32l-9.45-1.28h-3.57s-.77-1.27-.77,3.32a26.53,26.53,0,0,1-1,7.66l-5.62,2.56-3.57,4.08v3.83l-3.06,11.49-1.54,6.89-6.63,3.07s-3.83.25-5.62,2-4.34,8.68-4.85,9.7a103.49,103.49,0,0,0-3.07,10.47c-.25,1.53,3.07,10.47,3.07,10.47l1.53,3.83-2.55,8.68,1.78,3.32-.51,3.06-1.53,5.36,6.9,4.85,3.31,4.34s-1,5.11-2,5.62-4.59,7.92-4.59,7.92l-1,5.1,2.3,11,3.32,5.87,3.07,4.6,2.29,6.89.51,3.83-1.53,7.66-3.32,12.26-7.4,12s-7.15,3.06-7.92,4.08-5.1,3.83-5.1,3.83H690.3l-5.62,9.45-7.4,3.57s-6.39.26-7.15.77-7.15,2.55-7.41,3.83a22.53,22.53,0,0,1-1.78,4.09l2.29,11.74,3.32,3.83-.09.1,1.11.24,4.09,8.68,4.25,7.15,6.3,5.62,4.09,2,5.1,5.79,7,.51,6,.34,3.75,1.19-.69,4.94a35.29,35.29,0,0,0-1.36,4.42c0,.68-1,5.79-1,5.79l.51,4.76,3.58,1.2L710.3,693s-.51,4.6,0,4.77,3.91,4.42,3.91,4.42l1.36,4.26-5.1,8,4.33-6.79,5.2.66,12.6.17,4.59-1,4.6-2.55.51-3.92,4.42-4.25,4.26-3.24,4.42-.68,4.6-.34,4.09-4.25s5.1-3.92,5.78-3.92,4.6,2.89,4.6,3.57.34,4.43,0,5.79-5.11,5.79-5.11,5.79l-2,2.72,4.94,2.73,8.85,2.21,5.27.17,5.28-1.36s1.36,3.74.68,4.25,3.75,3.58,3.75,3.58l9.87-.68,8,4.25,2.21,5.45.68,9.53,2,6.81-2.21,7.15-1.87,5.79-.34,8.17L810.72,766l-7,1.36-2.89-1-3.06-3.74-3.24-.34-3.23,3.4-.51,4.09-7.83-.17-.54-.06c-.26.54-.44,1-.48,1.08-.17.51-1.87,4.42-1.87,4.42l2.38,8.34-3.92,7s-3.57,5.79-3.57,6.47-1.53,7.15-1.53,7.15l-3.07,1-1.19,6.13s2,2.89.17,4.08-6.3,2-6.81,2-5.27.17-5.27.17l-1,5.1,2.21,3.07L767,830l6,1.53,4.76,6.13,5.28,2.9,9.87-.34,7.49-2.56,5.62,1.53,8.68,8.34,8.85,1.54,6,3.23,10.55,2h9.53l4.6,6.13,5.44,1.53,2.68,3.45,0-1.06s9.87.68,11.23,1.36,12.26,4.08,12.26,4.08l18,7.15,9.19,8.85,6.13-2,1.36-7.15,1.7-13.28,1-14.29,8.17-4.77L947.74,843l6.13-10.55,4.77-23.49,5.79-7.49s2.38-6.47,3.4-6.81-.68-15-.68-15l1.7-11.92,4.43-13.61,1.36-11.24,5.45-1,9.19-4.42.68-7.15-4.77-5.11-4.08-2.72.34-10.21L994,716.68l9.87,2.72,19.75-7.14,14-7.49,5.44-3.41,9.88,5.79,14,3.06,17.71-5.44,10.89-6.13L1103,687.4s3.06-5.78,6.81-5.1a16,16,0,0,1,3,.88l1.45-8.37S1113.87,667.32,1112.17,666.64Z" transform="translate(-37.91 -65.29)"/></g><g id="Eisacktal"><path class="cls-1" d="M869.11,418.81l2.38,9.19v9.53l5.79,4.43,4.76,9.87,2.39,9.87s3.06,6.13,2.38,8.85-1,6.13-2.38,8.51-7.49,10.22-7.49,10.22-4.77,2.72-4.77,3.74v12.26s-.68,2-4.43,5.1-11.91,9.19-11.91,9.19-9.19,4.09-11.23,5.11-5.79,6.47-5.79,6.47l-9.87-1.7-2.39-2.73s-3.74,5.45-4.08,7.49-3.41,8.17-4.43,8.85-4.76,2.39-5.78,4.09-3.07,3.74-3.07,4.76,1,6.81,1,6.81l9.53,1.71,6.81,4.42-.68,9.19v6.81l6.47,4.43h4.09l4.08-9.19,4.43-2.73a10,10,0,0,1,1.7,5.11c0,2.72-1.7,6.81-3.41,7.83s-4.76,5.1-4.76,5.1-.34,12.26.68,12.6,3.74,6.81,3.74,6.81l18.05,4.76,9.87,1.37s2,5.44,3.06,6.12,9.19,6.47,9.19,6.47l12.6,1.36h9.53L913.7,622l8.17-7.15,10.9-2.72,17,1,12.93,1.36,11.58,12.26,8.17,3.4,3.74-7.49,5.45-7.49V607.4l6.13-5.44,8.85.34h6.13l5.78-7.49,5.79-2,11.57-.68,6.47-3.07s4.09.68,4.09,2.38-.34,8.17-.34,8.17l.68,4.09,5.45,2.72,13.27-.68,8.85-3.4,4.09-6.13,4.42-1,5.46.57c.17-1.07.25-1.68.25-1.68s4.08-5.87,8.93-9.19-.25-3.83-.25-4.85,3.57-4.34,3.57-4.34l7.66-.51a8.22,8.22,0,0,0-.51-3.06c-.51-.77.26-4.09.26-4.09l4.08-6.64s-4.85-3.06-5.62-3.32-10.21-6.13-10.21-6.13l-4.08-6.12s6.89-4.09,5.61-6.64a20.34,20.34,0,0,1-2-7.41c-.26-2.55.51-9.7.51-10.72s5.87-10.72,5.87-10.72,4.85-5.11,7.15-6.9,4.34-6.38,4.85-7.4,6.13-1,9.45-1.79,3.83-2.3,3.83-2.3l2-5.61-3.83-6.13,5.87-5.87s-2.8-2.56-3.57-2.56-6.81-14.8-6.81-14.8l3.41-7.83-6.81-3.75-2.73-10.21-6.46-.68-1.71-5.45s-2.72-4.42-3.74-5.79-1-6.8-1-6.8-4.43-8.17-4.77-9.88-1-6.81-1-6.81l-7.15.69-14-5.45-15-6.13-21.79-5.11-9.87-3.06-3.75-7.83s-7.83-.34-8.85-.68-1.36-7.15-1.36-8.51.68-10.21.68-10.21l3.74-21.11-2-9.87s-3.4-7.83-4.42-10.21-7.15-5.45-7.15-5.45l-2-7.49-4.08-8.17-5.79,1.36s-6.81.34-8.51.34-1.7-8.85-1.7-10.21,2.72-10.9,2.72-12.26-3.4-6.81-3.4-6.81L976,254.38l-7.83-3.74-6.81.68-8.51,5.45-2,6.46-7.49,6.13-2,7.15-.68,15,1.36,4.08,4.42,2.05,3.41,11.57-5.11,9.19-3.74,7.83,7.49,4.77,1,5.11-1.71,7.14L943,348l-4.09,2.72s1.37,5.45,2.39,5.45h3.4l9.19-3.4,1,7.49,1.71,9.53,5.44,7.83,5.79,5.1,5.11,2.73,3.06,6.12-1,9.88L972.26,411l4.08,4.76,1.36,5.79L970.21,426l-9.53,2.38-4.77-4.08-3.06-1.37-1,3.75-3.74,4.76H940.6L936.85,427l-1.7-7.15-1.36-1.7-7.15,1.36-5.79-2.38L914,410.3l-5.1,1.36-6.47,2-2.38,1.7-4.77,3.07-2.38,2.72-4.77-1.7L885.45,413l-7.15-2L871,412.16l-1.53,1.54Z" transform="translate(-37.91 -65.29)"/></g><g id="Wipptal"><path class="cls-1" d="M1042,198.21s-2.38-14-3.4-14.3-6.81-5.44-7.83-5.44S1024.34,172,1023,172s-14.64,2.72-16.34,2.72a53.65,53.65,0,0,0-7.15,1.37l-8.85-5.79-9.19-6.81-9.54-5.79a56.65,56.65,0,0,0-6.46-1.7c-1,0-14.64,3.4-14.64,3.4L943,164.51l-9.19,5.11-15,9.19s-12.6,7.49-14.3,9.19-7.15-13.28-7.15-13.28-2.72-3.4-5.79-4.08S882,164.17,881,163.83s-8.85-6.13-8.85-6.13l-12.26,3.41L851.74,170s-2,3.74-3.06,4.42-11.57,3.41-11.57,3.41l-1.71,9.87-6.46,9.53S818,200.6,817,200.94s-15,.34-16.34.34-14-2.05-14-2.05-7.49-5.44-8.85-7.49-6.13-12.25-6.13-12.25l-10.21,1a45,45,0,0,1-5.44.68,70.18,70.18,0,0,1-7.83-1.36l-4.09-.68-17,3.06s-14,3.07-15.32,3.75-16.34,5.44-16.34,5.44-2.72,5.79-4.43,6.47a149.65,149.65,0,0,1-16,3.41c-1.36,0-9.19,2.38-9.19,2.38l-11.23,2.72L649.53,205,640.68,202s-4.42,1.36-6.81,3.4-8.17,6.13-8.17,6.13l-2,9.53s-.2,3.11-.49,6.18l4.83.71,5.87,1.28,5.11,5.87,2.3,4.34a29.43,29.43,0,0,0,4.08,1.54c1.28.25,8.94,3.83,8.94,3.83s1.53,5.1,1.53,6.89-1,17.87-1,17.87.25,18.9,1,19.66,5.36,11.49,5.36,11.49l-1.28,15.06-.51,10.47,21.71,9.19,6.12,6.13,7.92,1.28,13,1.53,12,.77L734,347.4l9.95-2s6.39,4.34,7.41,5.11,10.21,5.87,10.21,5.87l5.36,2.55s2.81,8.68,4.34,12.77,2.56,6.13,2.56,6.13l5.61,6.64-.4,1.88,4.66-.18,9.53,1.7,3.75.68,3.74-2.38,5.45-6.47,6.47-8.85,7.14-.34,6.47.68,6.47-4.09,8.85,1s2.73,4.42,2.73,5.44,2.38,6.47,2.38,6.47l4.08,2,8.85.68,6.47-.34,1.7,3.75s2,5.78,2,7.15v9.19l3.4,7.49-3.74,3.74,1.53-1.54L878.3,411l7.15,2,2.72,6.47,4.77,1.7,2.38-2.72,4.77-3.07,2.38-1.7,6.47-2,5.1-1.36,6.81,6.81,5.79,2.38,7.15-1.36,1.36,1.7,1.7,7.15,3.75,4.42h7.49l3.74-4.76,1-3.75,3.06,1.37,4.77,4.08,9.53-2.38,7.49-4.43-1.36-5.79L972.26,411l2.72-9.53,1-9.88-3.06-6.12-5.11-2.73-5.79-5.1-5.44-7.83-1.71-9.53-1-7.49-9.19,3.4h-3.4c-1,0-2.39-5.45-2.39-5.45L943,348l4.76-4.77,1.71-7.14-1-5.11-7.49-4.77,3.74-7.83,5.11-9.19-3.41-11.57L942,295.57l-1.36-4.08.68-15,2-7.15,7.49-6.13,2-6.46,8.51-5.45,4.28-.43.49-2.63.68-8.17,1-4.43,4.08-6.13s9.88-2.38,10.9-2.38h8.51l6.81-2.38,6.13.68,11.57,2.38H1022l7.49-5.11h5.78s6.47,1.37,7.49,1.37a18,18,0,0,0,3.75-1l2.38-4.76,2,.34,8.17.68-.34-3.75,2-4.42,4.08-7.15.59-3.1L1058,202Z" transform="translate(-37.91 -65.29)"/></g><g id="Pustertal"><path class="cls-1" d="M1064.85,204l-4.08,7.15-2,4.42.34,3.75-8.17-.68-2-.34-2.38,4.76a18,18,0,0,1-3.75,1c-1,0-7.49-1.37-7.49-1.37h-5.78l-7.49,5.11h-6.13l-11.57-2.38-6.13-.68-6.81,2.38h-8.51c-1,0-10.9,2.38-10.9,2.38l-4.08,6.13-1,4.43-.68,8.17-.49,2.63,2.53-.25,7.83,3.74,6.81,9.19s3.4,5.45,3.4,6.81-2.72,10.9-2.72,12.26,0,10.21,1.7,10.21,8.51-.34,8.51-.34l5.79-1.36,4.08,8.17,2,7.49s6.12,3.06,7.15,5.45,4.42,10.21,4.42,10.21l2,9.87-3.74,21.11s-.68,8.85-.68,10.21.34,8.17,1.36,8.51,8.85.68,8.85.68l3.75,7.83,9.87,3.06,21.79,5.11,15,6.13,14,5.45,7.15-.69s.68,5.11,1,6.81,4.77,9.88,4.77,9.88,0,5.44,1,6.8,3.74,5.79,3.74,5.79l1.71,5.45,6.46.68,2.73,10.21,6.81,3.75-3.41,7.83s6,14.8,6.81,14.8,3.57,2.56,3.57,2.56l-5.87,5.87,3.83,6.13-2,5.61s-.51,1.54-3.83,2.3-8.94.77-9.45,1.79-2.55,5.62-4.85,7.4-7.15,6.9-7.15,6.9-5.87,9.7-5.87,10.72-.77,8.17-.51,10.72a20.34,20.34,0,0,0,2,7.41c1.28,2.55-5.61,6.64-5.61,6.64l4.08,6.12s9.45,5.88,10.21,6.13,5.62,3.32,5.62,3.32l-4.08,6.64s-.77,3.32-.26,4.09a8.22,8.22,0,0,1,.51,3.06l-7.66.51s-3.57,3.32-3.57,4.34,5.1,1.53.25,4.85-8.93,9.19-8.93,9.19-.08.61-.25,1.68l-5.46-.57,6.47.68,2.38,6.13,10.56,2.72,15,4.09,5.1-.68,3.41,3.74,8.85,2,1.36,4.77-4.09,6.47s-1,7.83-.68,9.53.34,8.51.34,8.51-8.85,3.74-10.55,4.42-10.21,3.75-11.57,4.09-4.77,3.74-4.77,4.77-.68,5.44.34,6.8,5.45,2.73,7.15,3.41,2,8.17,2,8.17l-1.45,8.37a29.56,29.56,0,0,1,4.86,2.52l4.76,9.87,1,4.43,10.9-3.74,21.1-2,10.56-3.06,11.57-7.49,8.17-3.75,12.26-.34,12.93,3.41,8.17-15.32,10.22-4.43,12.25,1.71,9.87,6.12,3.07.68,11.91-14.63,6.81-9.54,9.53-17.7,4.77-10.55,5.11-15.66,3.06-14.64,7.83-21.79,2-23.83-.68-17s1.36-3.74,2.38-3.74h8.17s3.41.34,3.75,2.38,6.13,10.89,6.13,10.89l8.85,7.15,10.21,7.83,12.6,8.17,12.93,7.83,7.49-3.06,9.19,5.11,7.15,7.15,9.19,4.08-3.4,17,.34,8.51,20.08-11.23,10.22-8.51,8.85-6.13s1.7-6.13,4.08-6.13,14.3,5.45,14.3,5.45l16.34,4.42,12.6-1.7,9.53-14,18.38,3.75,7.49,8.85,11.58-1.36,8.51-5.11,4.08-4.42-4.08-9.53-2.39-5.45,10.9-1,8.51-.34,18-24.17,12.26-7.49,23.49-6.47,9.53-2.72s-11.58-8.52-14-8.52-25.87-3.74-25.87-3.74a74.44,74.44,0,0,0-7.15-4.43c-1.7-.68-11.58-7.14-12.6-7.48s-12.25-8.52-12.25-8.52l-7.49-6.12-17-48.34-3.07-16.34-28.93-9.54-19.07,1.37-7.49-2,2.39-16.34-1.36-15.66,4.42-5.78,8.51-7.15,6.13-10.9s-5.11-6.46-6.81-6.46-8.85-2.73-8.85-2.73l.68-10.21,1-10.55-5.1-4.43-6.13-6.47V291.83a63.08,63.08,0,0,0-8.17-1c-2.73,0-9.53-1-9.53-1l-5.11-1-3.41-.68-10.21,9.19s-10.21,2.38-10.21,3.4-7.49,1-7.49,1l-9.53-31-3.75-5.1-25.87.34-6.47-1.7s-2.72-4.77-1-5.79,9.19-5.45,10.21-5.79,6.13-6.81,6.13-6.81l.68-7.15s.34-7.15,0-8.17-2.72-5.1-2.72-5.1-1.36-7.49-3.4-7.83-9.54-1.71-9.54-1.71l-5.44-6.12-1.37-8.85-2.38-12.26-4.42-17.7-2.73-8.17,2.39-10.55,3.74-8.17,14.64-1.37,21.11-1.36,17.7-6.47,2.72-9.19,4.43-15.32,3.06-10.21,11.57-1.7,2.73-7.15,1-8.85s.34-4.43-3.06-4.77-10.56-4.08-12.94-4.08-7.49-1.71-7.49-1.71l-9.19-6.12h-9.19s-6.81,5.44-8.17,6.12-14.64,4.77-14.64,4.77l-6.13,1a60.34,60.34,0,0,0-9.87,2.39l-14.3,2.72-19.4,3.4-4.77,12.6s-4.08,2-5.45,2h-16.68l-7.83,3.41-6.81,6.8-9.53,3.41s-18-.34-21.44,0-14.64,2-14.64,2L1214.3,124l-7.15,5.11-11.58-.34-10.89,5.1s-9.87,5.79-12.94,7.83-13.61,8.51-17,9.87S1135,166.89,1135,166.89l-8.51,8.85s-6.47,2.73-8.51,2.73-14.3,0-18.73.68-2.72,1-7.83,1.36a42.55,42.55,0,0,0-8.51,1.36L1070,200.26l-10.51,1.5,6-.86Z" transform="translate(-37.91 -65.29)"/></g></g><g id="Sterzing"><circle class="cls-2" cx="793.95" cy="225.54" r="9"/></g><g id="Bruneck"><circle class="cls-2" cx="1169.26" cy="323.59" r="9"/></g><g id="Brixen"><circle class="cls-2" cx="960.92" cy="410.9" r="9"/></g><g id="Klausen"><circle class="cls-2" cx="914.97" cy="475.24" r="9"/></g><g id="Salurn"><circle class="cls-2" cx="608.46" cy="933.93" r="9"/></g><g id="Bozen-2" data-name="Bozen"><circle class="cls-2" cx="712.75" cy="656.01" r="9"/></g><g id="Meran"><circle class="cls-3" cx="584.07" cy="472.18" r="9"/><circle class="cls-2" cx="584.07" cy="472.18" r="9"/><circle class="cls-4" cx="584.07" cy="472.18" r="9"/></g><g id="Glurns"><circle class="cls-2" cx="122.97" cy="456.86" r="9"/></g></svg>