<svg xmlns="http://www.w3.org/2000/svg" viewBox="0 0 1463.21 870.11"><defs><style>.cls-1,.cls-10,.cls-11,.cls-12,.cls-13,.cls-14,.cls-15,.cls-16,.cls-17,.cls-18,.cls-19,.cls-2,.cls-20,.cls-3,.cls-4,.cls-5,.cls-6,.cls-7,.cls-8,.cls-9{fill:none;stroke-miterlimit:10;}.cls-1{stroke:#000;}.cls-2{stroke:#f15a24;}.cls-10,.cls-11,.cls-12,.cls-13,.cls-14,.cls-15,.cls-16,.cls-17,.cls-18,.cls-19,.cls-2,.cls-20,.cls-3,.cls-4,.cls-5,.cls-6,.cls-7,.cls-8,.cls-9{stroke-width:6px;}.cls-3{stroke:#662d91;}.cls-4{stroke:#006837;}.cls-5{stroke:#42210b;}.cls-6{stroke:#93278f;}.cls-7{stroke:#22b573;}.cls-8{stroke:red;}.cls-9{stroke:#a67c52;}.cls-10{stroke:#fbb03b;}.cls-11{stroke:blue;}.cls-12{stroke:#ff0;}.cls-13{stroke:#00fb22;}.cls-14{stroke:#e0177c;}.cls-15{stroke:#ed1c24;}.cls-16{stroke:#1b1464;}.cls-17{stroke:#f0f;}.cls-18{stroke:aqua;}.cls-19{stroke:#ff931e;}.cls-20{stroke:#c1272d;}</style></defs><g id="Outline"><polygon class="cls-1" points="73.53 183.57 88.53 197.57 112.53 197.57 123.53 193.57 126.53 206.57 167.53 181.57 191.53 183.57 201.53 172.57 225.53 184.57 228.53 196.57 251.53 214.57 265.53 218.57 270.53 232.57 253.53 254.57 240.53 255.57 247.53 265.57 271.53 263.57 286.53 256.57 306.53 284.57 319.53 275.57 339.53 288.57 347.53 295.57 375.53 282.57 414.53 286.57 452.53 293.57 463.53 257.57 498.53 242.57 486.53 206.57 499.53 187.57 511.53 167.57 509.53 147.57 521.53 140.57 522.53 129.57 542.53 137.57 560.53 121.57 560.53 92.57 574.53 96.57 582.53 92.57 590.53 97.57 603.53 91.57 619.53 93.57 634.53 79.57 660.53 82.57 668.53 68.57 678.53 82.57 694.53 73.57 711.53 90.57 725.53 101.57 751.53 93.57 761.53 75.57 774.53 75.57 781.53 59.57 803.53 65.57 823.53 87.57 852.53 78.57 852.53 72.57 878.53 64.57 898.53 77.57 924.53 86.57 947.53 88.57 951.53 104.57 967.53 111.57 993.53 88.57 1022.53 92.57 1039.53 85.57 1058.53 69.57 1078.53 68.57 1098.53 46.57 1118.53 47.57 1138.53 36.57 1167.53 42.57 1181.53 24.57 1203.53 29.57 1217.53 13.57 1233.53 15.57 1249.53 10.57 1265.53 12.57 1284.53 0.57 1311.53 13.57 1316.53 32.57 1304.53 36.57 1294.53 63.57 1270.53 73.57 1252.53 69.57 1237.53 82.57 1233.53 95.57 1241.53 118.57 1239.53 132.57 1254.53 147.57 1261.53 164.57 1242.53 186.57 1274.53 193.57 1281.53 207.57 1297.53 224.57 1312.53 215.57 1333.53 216.57 1330.53 234.57 1346.53 238.57 1343.53 255.57 1356.53 262.57 1337.53 288.57 1341.53 300.57 1330.53 313.57 1336.53 327.57 1356.53 327.57 1384.53 335.57 1393.53 390.57 1435.53 425.57 1462.53 432.57 1457.53 444.57 1432.53 445.57 1415.53 473.57 1392.53 471.57 1392.53 479.57 1400.53 489.57 1382.53 496.57 1365.53 488.57 1352.53 485.57 1341.53 497.57 1317.53 494.57 1312.53 484.57 1301.53 488.57 1292.53 500.57 1275.53 499.57 1260.53 518.57 1263.53 488.57 1255.53 488.57 1246.53 474.57 1232.53 475.57 1203.53 450.57 1183.53 440.57 1182.53 427.57 1174.53 452.57 1179.53 461.57 1173.53 473.57 1176.53 484.57 1159.53 492.57 1160.53 524.57 1146.53 531.57 1142.53 543.57 1121.53 573.57 1114.53 559.57 1091.53 562.57 1081.53 578.57 1069.53 575.57 1059.53 569.57 1042.53 582.57 1016.53 580.57 996.53 594.57 997.53 578.57 990.53 566.57 977.53 572.57 977.53 588.57 939.53 590.57 918.53 585.57 882.53 597.57 862.53 592.57 871.53 609.57 869.53 622.57 853.53 623.57 859.53 634.57 850.53 649.57 846.53 674.57 837.53 694.57 831.53 711.57 803.53 713.57 800.53 745.57 791.53 748.57 770.53 736.57 747.53 729.57 748.53 743.57 734.53 743.57 726.53 757.57 709.53 768.57 692.53 766.57 686.53 782.57 678.53 792.57 661.53 787.57 661.53 794.57 674.53 801.57 679.53 811.57 684.53 824.57 679.53 834.57 657.53 827.57 659.53 818.57 645.53 810.57 646.53 790.57 628.53 799.57 626.53 814.57 631.53 821.57 621.53 830.57 611.53 826.57 578.53 860.57 551.53 869.57 538.53 862.57 529.53 853.57 533.53 833.57 548.53 831.57 541.53 825.57 527.53 825.57 510.53 805.57 502.53 801.57 505.53 795.57 516.53 793.57 554.53 743.57 547.53 718.57 557.53 716.57 556.53 705.57 563.53 680.57 558.53 664.57 565.53 661.57 555.53 652.57 574.53 646.57 564.53 627.57 571.53 619.57 567.53 602.57 567.53 587.57 551.53 569.57 545.53 579.57 525.53 589.57 512.53 595.57 502.53 581.57 492.53 578.57 482.53 574.57 476.53 543.57 455.53 555.57 443.53 559.57 454.53 567.57 462.53 585.57 463.53 602.57 470.53 613.57 469.53 631.57 453.53 622.57 448.53 632.57 436.53 605.57 424.53 605.57 424.53 595.57 398.53 583.57 390.53 597.57 381.53 603.57 371.53 605.57 370.53 615.57 351.53 627.57 336.53 625.57 332.53 617.57 319.53 632.57 301.53 628.57 276.53 622.57 254.53 580.57 237.53 582.57 214.53 604.57 194.53 611.57 177.53 608.57 171.53 615.57 152.53 614.57 138.53 591.57 121.53 586.57 109.53 575.57 106.53 566.57 50.53 559.57 34.53 539.57 38.53 513.57 57.53 504.57 57.53 481.57 62.53 459.57 60.53 440.57 70.53 434.57 42.53 406.57 11.53 411.57 0.53 363.57 14.53 337.57 21.53 333.57 15.53 307.57 43.53 287.57 41.53 266.57 35.53 248.57 60.53 224.57 58.53 206.57 73.53 183.57"/></g><g id="Martelltal"><polyline class="cls-2" points="304.03 440.07 300.03 461.07 293.03 480.07 278.03 489.07 266.03 496.07 264.03 515.07 243.03 525.07 223.03 536.07 219.03 550.07 205.03 565.07"/></g><g id="Ultental"><polyline class="cls-3" points="544.03 449.07 511.03 464.07 491.03 471.07 481.03 486.07 471.03 503.07 448.03 509.07 432.03 519.07 406.03 529.07 387.03 535.07 390.03 546.07 370.03 555.07 352.03 569.07 333.03 578.07 316.03 571.07 304.03 571.07"/></g><g id="Sarntal"><polyline class="cls-4" points="656.03 590.07 663.03 571.07 674.03 561.07 674.03 537.07 683.03 510.07 694.03 483.07 685.03 457.07 678.03 440.07 685.03 409.07"/></g><g id="Grödner_Tal" data-name="Grödner Tal"><polyline class="cls-5" points="797.03 483.07 827.03 492.07 844.03 493.07 861.03 496.07 864.03 508.07 874.03 518.07 896.03 518.07 905.03 531.07 929.03 538.07 954.03 538.07 962.03 547.07"/></g><g id="Gadertal"><polyline class="cls-6" points="1045.03 308.07 1042.03 325.07 1040.03 348.07 1051.03 363.07 1056.03 379.07 1049.03 392.07 1060.03 416.07 1067.03 432.07 1060.03 451.07 1051.03 478.07 1054.03 498.07 1060.03 517.07 1074.03 527.07"/></g><g id="Tauferer_Ahrntal" data-name="Tauferer Ahrntal"><polyline class="cls-7" points="1084.03 293.07 1103.03 266.07 1109.03 222.07 1110.03 192.07 1113.03 174.07 1096.03 155.07 1086.03 135.07 1098.03 116.07 1131.03 98.07 1178.03 69.07 1202.03 71.07 1220.03 51.07 1254.03 39.07"/></g><g id="Pustertal"><polyline class="cls-8" points="891.03 367.07 901.03 353.07 913.03 332.07 920.03 324.07 903.03 308.07 899.03 295.07 906.03 281.07 922.03 270.07 937.03 271.07 954.03 272.07 964.03 278.07 986.03 276.07 1009.03 282.07 1024.03 292.07 1038.03 305.07 1064.03 310.07 1082.03 293.07 1095.03 306.07 1117.03 304.07 1145.03 320.07 1180.03 333.07 1215.03 344.07 1233.03 359.07 1278.03 358.07 1291.03 379.07 1324.03 383.07"/></g><g id="Wipptal"><polyline class="cls-9" points="752.03 133.07 758.03 151.07 748.03 165.07 733.03 182.07 755.03 195.07 788.03 208.07 806.03 237.07 813.03 249.07 814.03 260.07 830.03 271.07 856.03 285.07 866.03 291.07 864.03 299.07 882.03 311.07 882.03 326.07 890.03 342.07 894.03 358.07 891.03 367.07"/></g><g id="Eisacktal"><polyline class="cls-10" points="892.03 365.07 876.03 389.07 859.03 411.07 847.03 432.07 824.03 444.07 807.03 462.07 791.03 489.07 781.03 516.07 775.03 529.07 776.03 541.07 763.03 552.07 752.03 571.07 719.03 595.07 671.03 593.07 656.03 589.07 638.03 607.07 634.03 610.07"/></g><g id="Unterland"><polyline class="cls-11" points="531.31 845.03 542.53 844.57 567.53 813.57 568.53 786.57 597.53 759.57 603.53 741.57 620.53 722.57 623.53 681.57 633.53 668.57 639.53 648.57 631.53 627.57 634.03 613.07 632.03 609.07 630.03 607.07"/></g><g id="Etschtal"><polyline class="cls-12" points="631.53 608.57 609.53 585.57 601.53 577.57 595.53 559.57 584.53 547.57 567.53 520.57 552.53 510.57 548.53 485.57 549.53 461.57 544.53 440.57 543.53 418.57 537.53 401.57 535.03 399.07"/></g><g id="Passeiertal"><polyline class="cls-13" points="534.03 399.07 546.03 384.07 560.03 374.07 570.03 340.07 584.03 296.07 610.03 257.07 591.03 246.07 575.03 246.07 547.03 241.07 552.03 220.07 544.03 207.07 544.03 182.07"/></g><g id="Vinschgau"><polyline class="cls-14" points="536.53 400.57 518.53 386.57 480.53 387.57 443.53 408.57 430.53 416.57 401.53 419.57 369.53 434.57 335.53 436.57 303.53 440.57 281.53 434.57 249.53 428.57 226.53 425.57 197.53 432.57 155.53 428.57 129.53 390.57 97.53 353.57 111.53 316.57 103.53 259.57 95.53 224.57"/></g><g id="Suldental"><polyline class="cls-15" points="155.03 427.07 136.03 445.07 111.03 455.07 98.03 487.07 109.03 498.07 114.03 530.07 133.03 547.07"/></g><g id="Schnalstal"><polyline class="cls-12" points="274.03 299.07 280.03 315.07 286.03 324.07 298.03 328.07 300.03 325.07 309.03 322.07 317.03 322.07 323.03 324.07 328.26 332.57 338.03 343.07 351.03 348.07 360.03 351.07 371.03 357.07 380.03 367.07 384.03 380.07 391.03 391.07 399.03 402.07 402.03 407.07 409.03 410.07 416.03 415.07 417.05 417.96"/></g><g id="Antholzer_Tal" data-name="Antholzer Tal"><polyline class="cls-10" points="1266.03 210.07 1258.03 216.07 1256.03 215.07 1249.03 215.07 1239.03 219.07 1238.03 223.07 1238.03 226.33 1233.29 226.33 1229.03 224.07 1224.03 228.07 1218.03 236.07 1214.03 241.07 1210.03 243.07 1209.03 252.07 1208.03 257.07 1205.03 260.07 1203.03 262.07 1201.63 270.07 1200.03 277.07 1196.54 279.94 1195.03 283.07 1195.03 285.05 1189.03 289.07 1189.03 293.07 1185.03 296.07 1182.03 303.07 1182.03 307.35 1178.03 313.07 1175.03 317.07 1172.03 321.07 1174.03 324.07 1170.82 329.65"/></g><g id="Langtauferer_Tal" data-name="Langtauferer Tal"><polyline class="cls-16" points="231.03 232.07 223.03 235.07 212.18 235.07 203.03 230.07 195.5 224.57 185.03 219.07 163.5 224.57 153.03 231.07 148.03 238.07 142.03 242.07 132.03 246.07 120.03 249.07 107.03 255.07 102.74 256.13"/></g><g id="Ridnauntal"><polyline class="cls-17" points="635.03 142.07 644.03 149.07 651.03 157.07 655.03 160.07 659.03 162.07 666.03 168.07 667.03 172.07 672.03 177.07 680.03 180.07 685.03 177.07 690.65 180.07 733.03 182.07"/></g><g id="Pflerschtal"><polyline class="cls-7" points="685.03 105.07 691.03 106.07 699.03 112.07 705.03 113.07 713.03 116.07 720.03 121.07 731.53 123.52 745.03 128.07 751.03 130.07 752.03 133.07"/></g><g id="Pfitschtal"><polyline class="cls-18" points="891.03 110.16 881.03 116.07 864.03 122.07 851.03 125.07 830.03 138.07 823.03 150.07 816.03 164.07 809.03 173.07 792.03 186.07 780.94 186.07 770.03 188.07 764.03 192.07 759.03 196.07"/></g><g id="Eggental"><polyline class="cls-8" points="790.03 704.07 788.03 700.07 788.03 697.9 788.03 696.37 789.03 695.35 789.03 691.26 784.03 690.07 781.03 685.07 775.03 683.07 768.03 678.07 760.03 670.07 756.03 663.07 752.03 657.07 747.03 653.07 739.03 643.07 734.03 639.07 723.03 633.07 713.03 629.07 705.03 625.07 700.03 614.07 698.22 608.57 694.03 602.41 690.33 593.88"/></g><g id="Ratschingstal"><polyline class="cls-19" points="635.03 203.6 644.86 203.6 659.03 206.07 677.03 204.84 695.41 196.07 708.03 190.07 713.28 181.14"/></g><g id="Villnößtal"><polyline class="cls-20" points="928.03 450.07 924.03 449.07 921.03 444.07 915.03 442.07 906.03 444.07 898.14 446.07 887.03 451.07 876.18 451.07 865.46 446.57 858.03 441.07 848.03 439.07 841.28 435.07"/></g></svg>